<?xml version="1.0" encoding="UTF-8" standalone="no"?>
<!-- Generator: Adobe Illustrator 19.2.1, SVG Export Plug-In . SVG Version: 6.00 Build 0)  -->

<svg xml:space="preserve"  xmlns="http://www.w3.org/2000/svg">
  <path d="M157 63h-10c0-8-6-14-14-14-12 0-16 11-16 22s5 20 17 20c6 0 12-5 12-13h11c0 16-13 21-24 21-19 0-28-13-28-29s8-29 26-29c6 0 12 2 16 8v-6h10zm46 15c0 13-9 21-21 21-13 0-21-8-21-21s8-21 21-21c12 0 21 8 21 21m-21 13c7 0 9-7 9-13s-2-13-9-13c-8 0-10 6-10 13 0 6 2 13 9 13m22-42v-7h17v48h5v8h-22v-8h6V49zm26 0v-7h17v48h5v8h-22v-8h6V49zm35 32c0 6 4 10 10 10 4 0 6-1 8-6h10c-2 10-10 14-19 14-13 0-21-9-21-22 0-12 9-20 21-20 10 0 17 6 19 15v9zm17-7c0-6-3-9-8-9-6 0-9 4-9 9zm62-8h-5v28c0 10-5 19-21 19-12 0-18-4-18-13h12c0 5 4 5 7 5 5 0 9-4 9-9v-5c-4 4-7 6-14 6-10 0-16-9-16-19 0-12 5-21 18-21 6 0 10 3 12 7h1v-6h15zm-25 23c7 0 9-6 9-12s-2-12-9-12-10 6-10 13c0 5 3 11 10 11m38-8c0 6 4 10 10 10 4 0 7-1 8-6h10c-2 10-9 14-18 14-14 0-22-9-22-22 0-12 9-20 21-20 10 0 17 6 19 15l1 9zm18-7c0-6-3-9-9-9s-9 4-9 9zm13 15h7V50h-7v-8h27c10 0 21 1 21 14 0 7-4 11-11 12v1c7 0 13 5 13 12 0 17-15 16-24 16h-26v-8zm19-24h6c6 0 12-1 12-7 0-7-6-8-11-8h-7v15zm0 24h7c7 0 12-1 12-8 0-8-6-8-12-8h-7Zm75-11c0 13-9 21-21 21s-21-8-21-21 8-21 21-21c12 0 21 8 21 21m-21 13c7 0 9-7 9-13s-2-13-9-13-10 6-10 13c1 6 3 13 10 13m51 1c-4 5-7 7-13 7-8 0-14-5-14-13 0-13 13-13 23-13h4v-3c0-5-4-6-8-6s-7 2-7 6h-11c1-11 10-13 19-13 13 0 17 5 17 17v16h5v8h-15Zm-6-12c-5 0-10 0-10 6 0 3 2 5 6 5 6 0 10-5 10-11zm25 10h6V66h-6v-8h16v8c3-5 7-9 13-9h4v10l-5-1c-7 0-10 6-11 13v11h7v8h-24zm75 0h5v7h-15v-6h-1c-3 5-7 7-14 7-11 0-16-9-16-20 0-14 7-21 17-21 7 0 10 3 12 7h1V49h-6v-8h17zm-11-13c0-7-3-12-10-12s-9 6-9 12c0 9 4 13 8 13 9 0 11-5 11-13M90 43c-1-5-5-9-11-11l-4-2-7-1a208 208 0 0 0-14-2l2-3 2-4 1-7-1-2v-1h-2l-2 1c-4 2-7 5-10 9l-1 5v1l-1 1-1 1-7 1a67 67 0 0 0-15 4l-2 1a22 22 0 0 0-3 2v1h-1l-1 3-1 1v1l-1 1v6l2 6 5 8v1l3 11a59 59 0 0 0 22 29l5 4 3 1 4-2 9-7c7-6 18-18 19-36l1-1 5-8c0-1 3-6 2-12M48 25l1-3 4-5 1-2h1l-1 3a16 16 0 0 1-4 7l-1 1-1-1m33 25-1 1s-5 7-4 11c0 3 2 7-2 15-2 5-4 10-11 19l-4 3s-6 6-9 5l-4-2-4-3c-11-14-11-26-9-34 0-3 2-5 4-6 4-3 10-4 11-4h17l2 1 1-1c0-1-1-2-6-3l-3-1h-8l-15 1s-12 2-12-7 11-12 19-13h8a61 61 0 0 1 15 2c10 2 19 6 15 16"/>
</svg>