<?xml version="1.0" encoding="UTF-8"?>
<svg width="139px" height="13px" viewBox="0 0 139 13" version="1.1" xmlns="http://www.w3.org/2000/svg" xmlns:xlink="http://www.w3.org/1999/xlink">
    <title>Logos/Small Color</title>
    <g id="New-Drupal-Landing" stroke="none" stroke-width="1" fill="none" fill-rule="evenodd">
        <g id="Landing--Types-of-Financial-Aid" transform="translate(-1109.000000, -1243.000000)">
            <g id="Logos/Small-Color" transform="translate(1109.000000, 1243.000000)">
                <path d="M108.410323,3.59839536 L108.410323,0.678697348 L110.514718,0.678697348 L110.514718,3.59839536 L112.246612,3.59839536 L112.246612,5.29563851 L110.514718,5.29563851 L110.514718,10.2857466 C110.514718,10.7622008 110.752945,10.8981402 111.278711,10.8981402 C111.601567,10.8981402 111.941082,10.7961856 112.246612,10.7272164 L112.246612,12.4594439 C111.669203,12.52808 111.16043,12.5950501 110.583021,12.5950501 C109.021384,12.5950501 108.410323,11.8147314 108.410323,10.5576254 L108.410323,5.29563851 L107.187868,5.29563851 L107.187868,3.59839536 L108.410323,3.59839536 Z M98.4281079,12.4254591 L98.4281079,3.59839536 L100.363911,3.59839536 L100.363911,4.54930466 C101.14423,4.00621351 102.043829,3.42880432 103.079367,3.42880432 C104.844913,3.42880432 105.693201,4.58262313 105.693201,6.382154 L105.693201,12.4254591 L103.588807,12.4254591 L103.588807,6.68801761 C103.588807,5.49988077 103.214973,5.12604747 102.501958,5.12604747 C101.585033,5.12604747 100.889344,5.65247938 100.533169,6.05996434 L100.533169,12.4254591 L98.4281079,12.4254591 Z M94.6427959,6.92591152 C94.6081446,5.70345665 93.9637653,4.99044127 92.9452195,4.99044127 C91.9263405,4.99044127 91.2809617,5.70345665 91.2469768,6.92591152 L94.6427959,6.92591152 Z M91.2469768,8.35160909 C91.2809617,10.1844584 92.0962648,10.8981402 93.0811589,10.8981402 C94.0653867,10.8981402 94.5231825,10.4570036 95.0492813,9.84460998 L96.5772665,10.7961856 C95.7622966,12.0529585 94.5741598,12.5950501 92.8765835,12.5950501 C90.5852719,12.5950501 89.1429151,10.8125117 89.1429151,8.01209383 C89.1429151,5.21100958 90.5852719,3.42880432 92.978538,3.42880432 C95.2875084,3.41147872 96.5772665,5.3636082 96.5772665,7.4859951 L96.5772665,8.35160909 L91.2469768,8.35160909 Z M85.3389447,5.87304769 C84.9148005,5.48288834 84.389035,5.12604747 83.7093381,5.12604747 C82.4532316,5.12604747 81.7412157,6.14525964 81.7412157,8.01209383 C81.7412157,9.8792612 82.4532316,10.8981402 83.7093381,10.8981402 C84.6086037,10.8981402 84.8974749,10.4570036 85.3389447,10.1161556 L85.3389447,5.87304769 Z M87.444006,12.4254591 L85.6618008,12.4254591 L85.559513,11.4758825 C84.8131792,12.2048908 84.1171562,12.5950501 83.1652474,12.5950501 C80.8229585,12.5950501 79.6351549,10.5239737 79.6351549,7.77419991 C79.6351549,5.60216849 80.8919278,3.42880432 83.1652474,3.42880432 C83.8789291,3.42880432 84.8804825,3.8532817 85.3052931,4.41303209 L85.3389447,4.41303209 L85.3389447,0.169591041 L87.444006,0.169591041 L87.444006,12.4254591 Z M77.9372454,3.59839536 L77.9372454,12.4254591 L76.0021083,12.4254591 L76.0021083,11.4758825 C75.2217896,12.0179741 74.3215244,12.5950501 73.285653,12.5950501 C71.5204402,12.5950501 70.6718186,11.440565 70.6718186,9.64170047 L70.6718186,3.59839536 L72.7772131,3.59839536 L72.7772131,9.33617005 C72.7772131,10.5239737 73.1497136,10.8981402 73.862729,10.8981402 C74.7803198,10.8981402 75.4753432,10.3713751 75.8325173,9.96355694 L75.8325173,3.59839536 L77.9372454,3.59839536 Z M65.1212937,3.59839536 L65.1212937,0.678697348 L67.2256887,0.678697348 L67.2256887,3.59839536 L68.9569166,3.59839536 L68.9569166,5.29563851 L67.2256887,5.29563851 L67.2256887,10.2857466 C67.2256887,10.7622008 67.4632494,10.8981402 67.9896813,10.8981402 C68.3125373,10.8981402 68.6517194,10.7961856 68.9569166,10.7272164 L68.9569166,12.4594439 C68.3798407,12.52808 67.8714007,12.5950501 67.2939915,12.5950501 C65.7320214,12.5950501 65.1212937,11.8147314 65.1212937,10.5576254 L65.1212937,5.29563851 L63.8985057,5.29563851 L63.8985057,3.59839536 L65.1212937,3.59839536 Z M60.7409138,3.42880432 C60.3840729,2.47822821 59.6543983,1.83351571 58.5505572,1.83351571 C57.5323446,1.83351571 56.8026699,2.2403343 56.8026699,3.19124359 C56.8026699,5.29563851 63.1175206,4.85450189 63.1175206,8.82673055 C63.1175206,11.3399432 61.5382249,12.5950501 58.8227691,12.5950501 C56.8199955,12.5950501 54.9351694,11.4758825 54.2394796,9.69267774 L56.1742835,8.84372298 C56.7347002,9.99820816 57.4643749,10.7622008 58.8397615,10.7622008 C60.010906,10.7622008 60.9105048,10.3203978 60.9105048,9.13226098 C60.9105048,6.72200245 54.5946546,7.19712391 54.5946546,3.42880432 C54.5946546,1.23878092 56.4291698,0 58.5505572,0 C60.5196791,0 62.1502853,0.983894584 62.8796267,2.7670994 L60.7409138,3.42880432 Z M49.6045465,12.4254591 L50.8266682,12.4254591 L50.8266682,0.169591041 L49.6045465,0.169591041 L49.6045465,12.4254591 Z M45.3770983,7.65558614 C42.5763472,8.14770002 41.2019601,8.96200357 41.2019601,10.1844584 C41.2019601,10.9994283 41.982612,11.5431859 42.6616425,11.5431859 C43.5439158,11.5431859 44.6644161,10.8981402 45.3770983,10.0828371 L45.3770983,7.65558614 Z M40.2337252,5.29563851 C40.7944752,4.27709271 41.8796579,3.42880432 43.5439158,3.42880432 C45.0379162,3.42880432 46.59922,4.14148652 46.59922,6.07695676 L46.59922,10.5239737 C46.59922,11.4925418 46.6838489,11.9673301 46.8027959,12.4254591 L45.5473557,12.4254591 L45.4114163,11.2040038 C44.7996891,11.8820348 43.8154613,12.5950501 42.4917183,12.5950501 C41.1336572,12.5950501 39.9788389,11.781413 39.9788389,10.167466 C39.9788389,8.23266214 41.4555137,7.26542679 45.3770983,6.56973702 L45.3770983,6.09394919 C45.3770983,4.92247158 44.6127725,4.48100178 43.560575,4.48100178 C42.2031803,4.48100178 41.5411422,5.26198685 41.3029151,5.85638846 L40.2337252,5.29563851 Z M34.6991932,3.59839536 L35.9216481,3.59839536 L35.9216481,5.34661578 L35.9559661,5.34661578 C36.6349967,4.14148652 37.3646713,3.46245598 38.8243537,3.46245598 L38.8243537,4.68491085 C37.2963684,4.71856251 36.4983909,5.72044908 35.9216481,7.53663918 L35.9216481,12.4254591 L34.6991932,12.4254591 L34.6991932,3.59839536 Z M31.3386918,7.19712391 C31.3386918,5.56785046 30.5577067,4.48100178 29.2336305,4.48100178 C27.7559561,4.48100178 26.9589782,5.56785046 26.8570236,7.19712391 L31.3386918,7.19712391 Z M32.8316927,10.5409661 C32.2546167,11.5431859 31.4399799,12.5950501 29.4372064,12.5950501 C27.4677513,12.5950501 25.6002507,11.2376554 25.6002507,8.01209383 C25.6002507,5.15969913 27.0266147,3.42880432 29.1993125,3.42880432 C31.0321618,3.42880432 32.5601471,4.61727435 32.5601471,7.43501783 L32.5601471,8.24998774 L26.8230388,8.24998774 C26.8230388,10.1844584 27.977524,11.5431859 29.4372064,11.5431859 C30.5233887,11.5431859 31.3720103,10.9657767 31.8817829,10.0485191 L32.8316927,10.5409661 Z M22.1024772,5.70345665 C21.4414386,4.97344885 20.6091431,4.48100178 19.8798016,4.48100178 C18.4534377,4.48100178 17.3842478,5.41458547 17.3842478,8.07939715 C17.3842478,10.3203978 18.35115,11.5431859 19.8798016,11.5431859 C20.6597872,11.5431859 21.2371963,11.2040038 22.1024772,10.3543827 L22.1024772,5.70345665 Z M23.3255984,0.169591041 L23.3255984,10.4906552 C23.3255984,11.1353677 23.2912804,11.781413 23.3932349,12.4254591 L22.2724014,12.4254591 L22.1024772,11.5598451 C21.6953254,12.1202619 20.8297114,12.5950501 19.7775139,12.5950501 C18.2148774,12.5950501 16.161793,11.5431859 16.161793,8.01209383 C16.161793,4.58262313 18.2148774,3.42880432 19.7098774,3.42880432 C20.5408402,3.42880432 21.3558101,3.8532817 22.0351738,4.41303209 L22.1024772,4.44768331 L22.1024772,0.169591041 L23.3255984,0.169591041 Z M12.8349432,7.19712391 C12.8349432,5.56785046 12.0542913,4.48100178 10.7298819,4.48100178 C9.25254067,4.48100178 8.45489637,5.56785046 8.35260865,7.19712391 L12.8349432,7.19712391 Z M14.3279441,10.5409661 C13.7508681,11.5431859 12.9365645,12.5950501 10.9331246,12.5950501 C8.96400267,12.5950501 7.09650212,11.2376554 7.09650212,8.01209383 C7.09650212,5.15969913 8.52286606,3.42880432 10.6952307,3.42880432 C12.5290796,3.42880432 14.0557321,4.61727435 14.0557321,7.43501783 L14.0557321,8.24998774 L8.31895699,8.24998774 C8.31895699,10.1844584 9.47344217,11.5431859 10.9331246,11.5431859 C12.0193069,11.5431859 12.8682616,10.9657767 13.3780343,10.0485191 L14.3279441,10.5409661 Z M7.26609316,0.169591041 L7.26609316,1.32407622 L1.35872743,1.32407622 L1.35872743,5.43191108 L5.73844105,5.43191108 L5.73844105,6.58639626 L1.35872743,6.58639626 L1.35872743,12.4254591 L0,12.4254591 L0,0.169591041 L7.26609316,0.169591041 Z" id="Federal-Student" fill="#585E60"></path>
                <path d="M135.961837,5.87311433 C135.53736,5.48295498 135.010928,5.12644729 134.331897,5.12644729 C133.076124,5.12644729 132.363109,6.14465991 132.363109,8.01182728 C132.363109,9.87899465 133.076124,10.89854 134.331897,10.89854 C135.232162,10.89854 135.5207,10.4574034 135.961837,10.1165554 L135.961837,5.87311433 Z M138.066898,12.4251926 L136.285026,12.4251926 L136.182739,11.475616 C135.435738,12.2046242 134.739715,12.5947836 133.788473,12.5947836 C131.446184,12.5947836 130.258047,10.5243735 130.258047,7.77426655 C130.258047,5.60223512 131.514154,3.42887096 133.788473,3.42887096 C134.501821,3.42887096 135.503708,3.85334834 135.927852,4.41343191 L135.961837,4.41343191 L135.961837,0.169657678 L138.066898,0.169657678 L138.066898,12.4251926 Z M126.218182,12.4251926 L128.322577,12.4251926 L128.322577,3.598462 L126.218182,3.598462 L126.218182,12.4251926 Z M126.218182,1.96918854 L128.322577,1.96918854 L128.322577,6.6636951e-05 L126.218182,6.6636951e-05 L126.218182,1.96918854 Z M118.324036,7.84223624 L121.17643,7.84223624 L119.801044,2.51194651 L119.767059,2.51194651 L118.324036,7.84223624 Z M118.290717,0.152665255 L121.210415,0.152665255 L124.689864,12.4251926 L122.363901,12.4251926 L121.685203,9.7773733 L117.814596,9.7773733 L117.085255,12.4251926 L114.759292,12.4251926 L118.290717,0.152665255 Z" id="Aid" fill="#3EA11B"></path>
            </g>
        </g>
    </g>
</svg>