<svg id="svg" xmlns="http://www.w3.org/2000/svg" xmlns:xlink="http://www.w3.org/1999/xlink" width="400" height="115.6" viewBox="0, 0, 400,115.6"><g id="svgg"><path id="path0" d="M226.600 2.734 C 212.294 3.758,204.502 10.769,202.189 24.700 C 201.387 29.527,201.124 51.805,201.800 57.600 C 203.887 75.491,214.190 83.504,233.450 82.215 C 250.162 81.096,258.800 71.636,258.800 54.451 L 258.800 53.000 250.820 53.000 L 242.841 53.000 242.709 54.450 C 241.866 63.701,238.618 67.093,230.600 67.098 C 223.038 67.103,219.621 63.851,218.622 55.700 C 218.278 52.898,218.332 31.464,218.689 28.800 C 219.727 21.062,223.259 17.800,230.600 17.800 C 238.627 17.800,242.755 22.487,242.798 31.650 C 242.800 31.977,243.315 32.000,250.800 32.000 L 258.800 32.000 258.800 30.735 C 258.800 11.131,247.431 1.244,226.600 2.734 M45.353 4.448 C 45.190 4.697,36.787 17.950,26.679 33.900 L 8.300 62.900 8.300 71.900 L 8.300 80.900 17.366 80.900 L 26.431 80.900 45.066 51.500 L 63.700 22.100 63.700 13.100 L 63.700 4.100 54.674 4.048 L 45.649 3.996 45.353 4.448 M85.118 4.750 C 84.850 5.163,76.433 18.454,66.415 34.287 L 48.200 63.074 48.200 72.037 L 48.200 81.000 57.269 81.000 L 66.337 81.000 84.969 51.567 L 103.600 22.134 103.600 13.067 L 103.600 4.000 94.603 4.000 L 85.606 4.000 85.118 4.750 M114.400 42.502 L 114.400 81.005 122.350 80.952 L 130.300 80.900 130.400 53.276 L 130.500 25.652 139.286 53.326 L 148.071 81.000 153.795 81.000 L 159.520 81.000 168.310 53.313 L 177.100 25.627 177.200 53.263 L 177.300 80.900 185.700 80.900 L 194.100 80.900 194.100 42.500 L 194.100 4.100 181.800 4.049 L 169.500 3.998 161.925 28.249 C 157.758 41.587,154.293 52.563,154.224 52.640 C 154.128 52.749,146.869 29.943,139.263 5.635 L 138.752 4.000 126.576 4.000 L 114.400 4.000 114.400 42.502 M285.004 4.489 C 283.863 7.491,260.408 80.688,260.544 80.824 C 260.647 80.927,264.317 80.982,269.096 80.952 L 277.468 80.900 279.773 73.250 L 282.079 65.600 293.440 65.600 C 299.688 65.600,304.800 65.636,304.800 65.681 C 304.800 65.760,308.814 79.073,309.223 80.350 L 309.431 81.000 318.204 81.000 C 323.836 81.000,327.021 80.928,327.100 80.800 C 327.168 80.690,321.661 63.367,314.862 42.304 L 302.500 4.008 293.845 4.004 L 285.190 4.000 285.004 4.489 M333.049 42.450 L 333.100 80.900 341.049 80.952 L 348.998 81.005 349.049 55.894 L 349.100 30.783 362.127 55.841 L 375.155 80.900 383.177 80.952 L 391.200 81.005 391.200 42.500 L 391.200 3.995 383.250 4.048 L 375.300 4.100 375.200 27.413 L 375.100 50.727 363.000 27.370 L 350.900 4.013 341.949 4.007 L 332.999 4.000 333.049 42.450 M297.049 37.946 C 298.988 45.067,300.549 50.918,300.518 50.949 C 300.487 50.980,297.270 50.981,293.370 50.953 L 286.279 50.900 289.789 37.951 C 291.720 30.830,293.350 25.002,293.412 25.001 C 293.473 25.001,295.110 30.826,297.049 37.946 M35.527 100.293 C 33.428 101.041,32.900 102.349,32.900 106.800 C 32.900 112.581,33.888 113.923,38.103 113.864 C 41.124 113.822,42.800 112.217,42.800 109.364 L 42.800 108.600 41.494 108.600 C 40.623 108.600,40.162 108.683,40.110 108.850 C 40.068 108.988,39.977 109.355,39.909 109.667 C 39.431 111.839,36.305 111.712,35.794 109.500 C 35.582 108.581,35.544 105.663,35.730 104.537 C 36.174 101.852,39.611 101.982,40.041 104.700 C 40.096 105.047,40.283 105.108,41.452 105.159 L 42.800 105.218 42.800 104.545 C 42.800 100.987,39.308 98.945,35.527 100.293 M70.553 100.199 C 68.249 100.893,67.722 102.020,67.633 106.441 C 67.515 112.341,68.561 113.875,72.700 113.875 C 76.369 113.875,77.540 112.569,77.744 108.250 L 77.850 106.000 75.216 106.000 L 72.581 106.000 72.640 107.250 L 72.700 108.500 73.874 108.561 L 75.049 108.621 74.931 109.361 C 74.596 111.470,71.686 111.908,70.699 109.998 C 70.299 109.224,70.280 104.874,70.673 103.934 C 71.425 102.135,74.282 102.210,74.754 104.042 C 74.923 104.695,74.934 104.700,76.262 104.759 L 77.600 104.818 77.600 104.145 C 77.600 101.022,74.180 99.107,70.553 100.199 M117.913 100.316 C 115.916 101.048,115.522 101.998,115.433 106.300 C 115.314 111.998,115.954 113.288,119.160 113.810 C 122.727 114.390,125.192 112.692,125.198 109.650 L 125.200 108.600 123.922 108.600 L 122.645 108.600 122.508 109.330 C 122.181 111.072,120.102 111.848,118.923 110.669 C 118.205 109.950,118.158 109.667,118.234 106.506 L 118.300 103.766 118.953 103.183 C 120.250 102.025,121.991 102.593,122.425 104.315 L 122.647 105.200 123.924 105.200 L 125.200 105.200 125.199 104.350 C 125.194 100.893,121.669 98.941,117.913 100.316 M131.552 100.285 C 129.211 101.120,128.421 103.238,128.662 108.026 C 128.889 112.507,130.100 113.855,133.900 113.855 C 138.059 113.855,139.100 112.483,139.100 107.000 C 139.100 102.288,138.553 100.958,136.345 100.302 C 135.099 99.932,132.565 99.923,131.552 100.285 M181.409 100.250 C 179.347 100.940,178.698 102.560,178.704 107.000 C 178.712 112.492,179.790 113.888,184.000 113.860 C 187.566 113.835,188.800 112.346,188.800 108.064 L 188.800 106.000 186.300 106.000 L 183.800 106.000 183.800 107.300 L 183.800 108.600 184.973 108.600 L 186.146 108.600 185.992 109.444 C 185.659 111.266,183.618 111.858,182.280 110.520 L 181.600 109.840 181.600 106.900 L 181.600 103.960 182.280 103.280 C 183.502 102.058,186.000 102.803,186.000 104.389 C 186.000 104.791,186.084 104.815,187.350 104.759 L 188.700 104.700 188.645 103.800 C 188.466 100.849,184.879 99.089,181.409 100.250 M226.952 100.285 C 224.728 101.078,224.322 101.998,224.233 106.441 C 224.113 112.446,225.118 113.889,229.400 113.860 C 232.459 113.839,233.964 112.490,234.065 109.682 L 234.100 108.700 232.847 108.640 C 231.534 108.578,231.549 108.568,231.321 109.619 C 230.892 111.591,228.070 111.774,227.279 109.880 C 226.538 108.106,227.017 103.631,228.023 102.926 C 229.238 102.075,231.085 102.910,231.326 104.418 L 231.451 105.200 232.853 105.200 L 234.255 105.200 234.122 104.066 C 233.722 100.665,230.559 98.997,226.952 100.285 M239.786 100.550 C 238.014 101.447,237.717 102.261,237.633 106.441 C 237.513 112.446,238.518 113.889,242.800 113.860 C 245.859 113.839,247.364 112.490,247.465 109.682 L 247.500 108.700 246.177 108.641 L 244.854 108.583 244.729 109.362 C 244.388 111.497,241.694 111.922,240.699 109.998 C 240.295 109.216,240.280 104.874,240.679 103.920 C 241.513 101.924,244.384 102.277,244.726 104.418 L 244.851 105.200 246.253 105.200 L 247.654 105.200 247.527 104.271 C 247.079 100.999,245.894 100.000,242.463 100.000 C 241.124 100.000,240.700 100.087,239.786 100.550 M265.900 100.256 C 264.133 100.974,263.611 101.864,263.604 104.170 C 263.597 106.733,264.314 107.512,267.247 108.123 C 269.724 108.640,270.617 109.434,269.918 110.501 C 269.025 111.863,266.379 111.458,266.161 109.925 C 266.107 109.547,265.952 109.494,264.750 109.441 L 263.400 109.382 263.400 110.248 C 263.400 115.026,272.244 115.372,272.897 110.620 C 273.322 107.532,272.225 106.130,268.882 105.490 C 266.594 105.053,265.747 104.024,266.838 103.008 C 267.810 102.102,270.000 102.782,270.000 103.991 C 270.000 104.365,270.123 104.400,271.428 104.400 L 272.856 104.400 272.734 103.375 C 272.445 100.932,271.392 100.125,268.400 100.056 C 267.264 100.030,266.259 100.110,265.900 100.256 M278.500 100.289 C 276.906 100.875,276.081 102.449,276.241 104.598 C 276.405 106.791,277.185 107.536,279.917 108.109 C 281.852 108.515,282.800 109.110,282.800 109.918 C 282.800 111.693,279.426 111.807,278.909 110.050 L 278.717 109.400 277.331 109.400 L 275.944 109.400 276.066 110.425 C 276.388 113.150,278.578 114.362,282.148 113.793 C 284.684 113.389,285.604 112.298,285.596 109.708 C 285.587 107.095,284.769 106.135,282.100 105.610 C 279.152 105.030,278.338 104.244,279.491 103.091 C 280.472 102.110,282.399 102.606,282.632 103.900 C 282.695 104.247,282.886 104.308,284.081 104.360 L 285.457 104.420 285.345 103.179 C 285.103 100.516,281.742 99.097,278.500 100.289 M355.506 100.308 C 353.381 101.115,352.900 102.332,352.900 106.900 C 352.900 112.448,353.892 113.829,357.894 113.851 C 362.328 113.876,363.100 112.846,363.100 106.900 C 363.100 102.216,362.899 101.551,361.197 100.608 C 360.063 99.979,356.821 99.808,355.506 100.308 M8.400 106.893 L 8.400 113.600 9.696 113.600 L 10.992 113.600 11.046 109.398 L 11.100 105.195 12.525 109.348 L 13.949 113.500 15.046 113.559 L 16.143 113.618 17.558 109.459 L 18.972 105.300 18.986 109.450 L 19.000 113.600 20.400 113.600 L 21.800 113.600 21.800 106.893 L 21.800 100.186 19.871 100.243 L 17.942 100.300 16.564 104.390 C 15.806 106.640,15.153 108.513,15.114 108.553 C 15.074 108.593,14.417 106.752,13.655 104.463 L 12.268 100.300 10.334 100.243 L 8.400 100.186 8.400 106.893 M26.200 106.891 L 26.200 113.600 27.603 113.600 L 29.005 113.600 28.953 106.950 L 28.900 100.300 27.550 100.241 L 26.200 100.182 26.200 106.891 M46.533 100.333 C 46.460 100.407,46.400 103.422,46.400 107.033 L 46.400 113.600 47.800 113.600 L 49.200 113.600 49.200 110.900 L 49.200 108.200 51.500 108.200 L 53.800 108.200 53.800 110.900 L 53.800 113.600 55.200 113.600 L 56.600 113.600 56.600 106.900 L 56.600 100.200 55.200 100.200 L 53.800 100.200 53.800 102.800 L 53.800 105.400 51.500 105.400 L 49.200 105.400 49.200 102.800 L 49.200 100.200 47.933 100.200 C 47.237 100.200,46.607 100.260,46.533 100.333 M60.800 106.900 L 60.800 113.600 62.200 113.600 L 63.600 113.600 63.600 106.900 L 63.600 100.200 62.200 100.200 L 60.800 100.200 60.800 106.900 M84.406 100.842 C 83.803 102.502,80.200 113.293,80.200 113.437 C 80.200 113.527,80.857 113.600,81.661 113.600 L 83.121 113.600 83.572 112.200 L 84.023 110.800 85.992 110.800 L 87.961 110.800 88.386 112.200 L 88.812 113.600 90.306 113.600 C 92.167 113.600,92.238 114.320,89.627 106.669 L 87.455 100.300 86.050 100.242 L 84.645 100.183 84.406 100.842 M95.133 100.333 C 95.060 100.407,95.000 103.422,95.000 107.033 L 95.000 113.600 96.396 113.600 L 97.792 113.600 97.846 109.476 L 97.900 105.353 100.135 109.426 L 102.371 113.500 103.785 113.559 L 105.200 113.618 105.200 106.900 L 105.200 100.182 103.850 100.241 L 102.500 100.300 102.443 104.100 L 102.387 107.900 100.273 104.050 L 98.160 100.200 96.713 100.200 C 95.918 100.200,95.207 100.260,95.133 100.333 M143.133 100.333 C 143.060 100.407,143.000 103.422,143.000 107.033 L 143.000 113.600 147.200 113.600 L 151.400 113.600 151.400 112.300 L 151.400 111.000 148.600 111.000 L 145.800 111.000 145.800 105.600 L 145.800 100.200 144.533 100.200 C 143.837 100.200,143.207 100.260,143.133 100.333 M154.800 106.900 L 154.800 113.600 159.010 113.600 L 163.219 113.600 163.160 112.350 L 163.100 111.100 160.350 111.044 L 157.600 110.989 157.600 105.594 L 157.600 100.200 156.200 100.200 L 154.800 100.200 154.800 106.900 M166.533 100.333 C 166.460 100.407,166.400 103.422,166.400 107.033 L 166.400 113.600 171.010 113.600 L 175.619 113.600 175.560 112.350 L 175.500 111.100 172.350 111.045 L 169.200 110.990 169.200 109.495 L 169.200 108.000 171.800 108.000 L 174.400 108.000 174.400 106.700 L 174.400 105.400 171.800 105.400 L 169.200 105.400 169.200 104.105 L 169.200 102.810 172.250 102.755 L 175.300 102.700 175.360 101.450 L 175.419 100.200 171.043 100.200 C 168.636 100.200,166.607 100.260,166.533 100.333 M192.733 100.333 C 192.660 100.407,192.600 103.422,192.600 107.033 L 192.600 113.600 197.210 113.600 L 201.819 113.600 201.760 112.350 L 201.700 111.100 198.650 111.045 L 195.600 110.990 195.600 109.495 L 195.600 108.000 198.100 108.000 L 200.600 108.000 200.600 106.700 L 200.600 105.400 198.100 105.400 L 195.600 105.400 195.600 104.100 L 195.600 102.800 198.600 102.800 L 201.600 102.800 201.600 101.500 L 201.600 100.200 197.233 100.200 C 194.832 100.200,192.807 100.260,192.733 100.333 M212.317 106.550 C 209.764 114.210,209.826 113.600,211.588 113.600 L 212.977 113.600 213.428 112.200 L 213.879 110.800 215.828 110.800 L 217.777 110.800 218.228 112.200 L 218.679 113.600 220.139 113.600 C 221.952 113.600,222.026 114.347,219.455 106.651 L 217.300 100.201 215.867 100.201 L 214.433 100.200 212.317 106.550 M251.200 106.896 L 251.200 113.600 255.810 113.600 L 260.419 113.600 260.360 112.350 L 260.300 111.100 257.150 111.045 L 254.000 110.990 254.000 109.495 L 254.000 108.000 256.610 108.000 L 259.219 108.000 259.160 106.750 L 259.100 105.500 256.550 105.444 L 254.000 105.388 254.000 104.099 L 254.000 102.810 257.050 102.755 L 260.100 102.700 260.100 101.500 L 260.100 100.300 255.650 100.246 L 251.200 100.192 251.200 106.896 M295.400 106.892 L 295.400 113.600 296.696 113.600 L 297.992 113.600 298.046 109.418 L 298.100 105.236 300.386 109.418 L 302.673 113.600 304.036 113.600 L 305.400 113.600 305.400 106.900 L 305.400 100.200 304.104 100.200 L 302.808 100.200 302.754 104.111 L 302.700 108.022 300.582 104.161 L 298.464 100.300 296.932 100.242 L 295.400 100.183 295.400 106.892 M309.733 100.333 C 309.660 100.407,309.600 103.422,309.600 107.033 L 309.600 113.600 314.200 113.600 L 318.800 113.600 318.800 112.300 L 318.800 111.000 315.700 111.000 L 312.600 111.000 312.600 109.500 L 312.600 108.000 315.210 108.000 L 317.819 108.000 317.760 106.750 L 317.700 105.500 315.150 105.444 L 312.600 105.388 312.600 104.094 L 312.600 102.800 315.600 102.800 L 318.600 102.800 318.600 101.500 L 318.600 100.200 314.233 100.200 C 311.832 100.200,309.807 100.260,309.733 100.333 M321.600 101.500 L 321.600 102.800 323.300 102.800 L 325.000 102.800 325.000 108.200 L 325.000 113.600 326.400 113.600 L 327.800 113.600 327.800 108.200 L 327.800 102.800 329.600 102.800 L 331.400 102.800 331.400 101.500 L 331.400 100.200 326.500 100.200 L 321.600 100.200 321.600 101.500 M334.006 100.650 C 334.009 100.898,334.712 103.890,335.568 107.300 L 337.124 113.500 338.552 113.559 L 339.980 113.617 340.176 112.859 C 340.284 112.441,340.706 110.795,341.114 109.200 C 341.522 107.605,341.916 106.185,341.989 106.045 C 342.062 105.904,342.567 107.547,343.111 109.695 L 344.100 113.600 345.525 113.600 L 346.950 113.600 348.575 107.102 C 349.469 103.528,350.200 100.513,350.200 100.402 C 350.200 100.285,349.613 100.200,348.808 100.200 L 347.415 100.200 347.222 100.950 C 347.116 101.363,346.696 103.185,346.290 105.000 C 345.883 106.815,345.528 108.326,345.502 108.357 C 345.475 108.388,345.077 106.903,344.617 105.057 C 344.157 103.211,343.692 101.363,343.583 100.950 L 343.385 100.200 342.100 100.200 L 340.815 100.200 340.579 101.050 C 340.449 101.517,339.969 103.378,339.513 105.183 L 338.683 108.467 337.825 104.683 C 337.354 102.603,336.924 100.743,336.870 100.550 C 336.702 99.944,333.998 100.039,334.006 100.650 M367.200 106.900 L 367.200 113.600 368.600 113.600 L 370.000 113.600 370.000 111.088 L 370.000 108.576 370.739 108.638 C 371.464 108.699,371.503 108.746,372.789 111.145 L 374.100 113.590 375.650 113.595 C 377.589 113.601,377.588 113.611,375.990 110.700 C 374.903 108.719,374.817 108.480,375.130 108.300 C 376.342 107.601,376.798 106.535,376.798 104.400 C 376.798 100.822,375.862 100.203,370.450 100.201 L 367.200 100.200 367.200 106.900 M380.800 106.900 L 380.800 113.600 382.200 113.600 L 383.600 113.600 383.600 111.879 C 383.600 110.186,383.613 110.141,384.361 109.201 L 385.122 108.245 386.583 110.923 L 388.044 113.600 389.622 113.600 C 390.887 113.600,391.200 113.541,391.200 113.302 C 391.200 113.083,388.579 108.184,387.276 105.968 C 387.234 105.895,388.099 104.695,389.199 103.301 C 391.672 100.168,391.668 100.198,389.550 100.207 L 387.900 100.215 385.800 102.910 L 383.700 105.605 383.644 102.902 L 383.589 100.200 382.194 100.200 L 380.800 100.200 380.800 106.900 M135.379 103.113 C 136.781 104.293,136.833 109.447,135.455 110.725 C 134.622 111.496,133.162 111.402,132.280 110.520 L 131.600 109.840 131.600 107.110 C 131.600 104.194,131.766 103.527,132.643 102.912 C 133.353 102.415,134.664 102.511,135.379 103.113 M359.446 102.993 C 360.296 103.662,360.437 104.324,360.366 107.297 L 360.300 110.034 359.647 110.617 C 357.534 112.503,355.599 110.795,355.601 107.046 C 355.603 103.253,357.387 101.373,359.446 102.993 M373.509 103.291 C 374.843 104.625,373.857 106.000,371.565 106.000 L 370.000 106.000 370.000 104.400 L 370.000 102.800 371.509 102.800 C 372.845 102.800,373.075 102.856,373.509 103.291 M86.626 106.400 L 87.152 108.200 85.986 108.200 L 84.819 108.200 85.112 107.250 C 85.273 106.728,85.505 105.918,85.626 105.450 C 85.934 104.267,86.028 104.356,86.626 106.400 M216.997 108.150 C 216.999 108.178,216.470 108.200,215.821 108.200 L 214.642 108.200 215.127 106.650 C 215.394 105.797,215.666 104.965,215.732 104.800 C 215.819 104.583,216.964 107.616,216.997 108.150 " stroke="none" fill-rule="evenodd"></path></g></svg>