<?xml version="1.0" encoding="UTF-8"?>
<!DOCTYPE svg PUBLIC "-//W3C//DTD SVG 1.1//EN" "http://www.w3.org/Graphics/SVG/1.1/DTD/svg11.dtd">
<svg xmlns="http://www.w3.org/2000/svg" version="1.1" width="2000px" height="578px" style="shape-rendering:geometricPrecision; text-rendering:geometricPrecision; image-rendering:optimizeQuality; fill-rule:evenodd; clip-rule:evenodd" xmlns:xlink="http://www.w3.org/1999/xlink">
<g><path d="M 1223.5,25.5 C 1242.13,33.9616 1257.3,46.6282 1269,63.5C 1272.53,69.8955 1276.03,76.2288 1279.5,82.5C 1283.2,90.4226 1286.03,98.7559 1288,107.5C 1290.98,121.354 1292.82,135.354 1293.5,149.5C 1292.52,152.287 1292.19,155.287 1292.5,158.5C 1266.5,158.5 1240.5,158.5 1214.5,158.5C 1214.79,156.265 1214.46,154.265 1213.5,152.5C 1211.33,104.504 1186.33,83.3375 1138.5,89C 1116.12,92.7152 1101.95,105.549 1096,127.5C 1093.92,135.372 1092.59,143.372 1092,151.5C 1091.33,191.833 1091.33,232.167 1092,272.5C 1093.81,318.65 1117.65,339.483 1163.5,335C 1184.35,333.168 1198.85,322.668 1207,303.5C 1210.34,292.931 1212.5,282.264 1213.5,271.5C 1214.46,269.735 1214.79,267.735 1214.5,265.5C 1240.5,265.5 1266.5,265.5 1292.5,265.5C 1292.19,268.713 1292.52,271.713 1293.5,274.5C 1290.68,366.318 1243.35,411.985 1151.5,411.5C 1128.6,411.491 1106.27,407.991 1084.5,401C 1047.6,387.097 1024.44,360.93 1015,322.5C 1009.44,300.858 1006.77,278.858 1007,256.5C 1005.93,215.13 1006.6,173.797 1009,132.5C 1010.12,120.732 1012.62,109.398 1016.5,98.5C 1019.42,90.7693 1022.75,83.1026 1026.5,75.5C 1026.38,74.8933 1026.04,74.56 1025.5,74.5C 1029.98,65.0264 1035.98,56.693 1043.5,49.5C 1046.17,48.8333 1047.83,47.1667 1048.5,44.5C 1064.52,30.3248 1083.19,21.1581 1104.5,17C 1138.65,10.5161 1172.65,11.1827 1206.5,19C 1212.61,20.3086 1218.27,22.4753 1223.5,25.5 Z"/></g>
<g><path d="M 969.5,20.5 C 928.281,19.8479 887.281,20.5145 846.5,22.5C 846.5,21.5 846.5,20.5 846.5,19.5C 887.67,19.168 928.67,19.5014 969.5,20.5 Z"/></g>
<g><path d="M 1665.5,19.5 C 1694.67,20.1667 1724,20.8333 1753.5,21.5C 1793.57,99.6694 1833.91,177.003 1874.5,253.5C 1875.17,175.833 1875.83,98.1667 1876.5,20.5C 1902.5,20.5 1928.5,20.5 1954.5,20.5C 1954.17,148.334 1954.5,276.001 1955.5,403.5C 1928.83,404.833 1902.17,404.833 1875.5,403.5C 1832.8,319.113 1789.13,234.779 1744.5,150.5C 1743.17,234.999 1743.17,319.332 1744.5,403.5C 1718.1,404.832 1691.6,404.832 1665,403.5C 1664.17,275.333 1664.33,147.333 1665.5,19.5 Z"/></g>
<g><path d="M 41.5,315.5 C 103.559,218.4 165.392,121.067 227,23.5C 227.692,22.5632 227.525,21.8966 226.5,21.5C 226.611,20.8826 226.944,20.3826 227.5,20C 257.738,19.1715 287.905,19.3382 318,20.5C 318.667,49.8333 318.667,79.1667 318,108.5C 256.221,207.22 194.054,305.72 131.5,404C 101.5,404.667 71.5,404.667 41.5,404C 40.1682,374.402 40.1682,344.902 41.5,315.5 Z"/></g>
<g><path d="M 428.5,20.5 C 457.833,20.5 487.167,20.5 516.5,20.5C 516.169,50.338 516.502,80.0047 517.5,109.5C 455.891,207.616 394.058,305.616 332,403.5C 301.574,404.496 271.074,404.829 240.5,404.5C 240.169,374.329 240.502,344.329 241.5,314.5C 304.135,217.359 366.469,119.359 428.5,20.5 Z"/></g>
<g><path d="M 427.5,20.5 C 457.329,19.5019 487.329,19.1686 517.5,19.5C 517.5,49.5 517.5,79.5 517.5,109.5C 516.502,80.0047 516.169,50.338 516.5,20.5C 487.167,20.5 457.833,20.5 428.5,20.5C 428.167,20.5 427.833,20.5 427.5,20.5 Z"/></g>
<g><path d="M 694.5,25.5 C 693.661,24.3588 692.994,23.0255 692.5,21.5C 652.506,20.5001 612.506,20.1668 572.5,20.5C 572.833,148.334 572.5,276.001 571.5,403.5C 571.5,275.5 571.5,147.5 571.5,19.5C 612.172,19.1668 652.839,19.5001 693.5,20.5C 694.309,22.0709 694.643,23.7376 694.5,25.5 Z"/></g>
<g><path d="M 694.5,25.5 C 720.132,104.567 745.298,183.9 770,263.5C 795.823,183.2 821.323,102.867 846.5,22.5C 887.281,20.5145 928.281,19.8479 969.5,20.5C 970.666,147.999 970.833,275.666 970,403.5C 942,404.833 914,404.833 886,403.5C 885.667,311.5 885.333,219.5 885,127.5C 855.726,219.821 826.559,312.155 797.5,404.5C 778.167,404.5 758.833,404.5 739.5,404.5C 710.441,312.155 681.274,219.821 652,127.5C 651.667,219.5 651.333,311.5 651,403.5C 624.402,404.832 597.902,404.832 571.5,403.5C 572.5,276.001 572.833,148.334 572.5,20.5C 612.506,20.1668 652.506,20.5001 692.5,21.5C 692.994,23.0255 693.661,24.3588 694.5,25.5 Z"/></g>
<g><path d="M 1425.5,19.5 C 1454.5,19.5 1483.5,19.5 1512.5,19.5C 1553.66,147.471 1594.49,275.471 1635,403.5C 1605.57,404.828 1576.07,404.828 1546.5,403.5C 1538.68,378.546 1531.01,353.546 1523.5,328.5C 1485.51,327.5 1447.51,327.167 1409.5,327.5C 1402.13,353.099 1394.47,378.599 1386.5,404C 1358.5,404.667 1330.5,404.667 1302.5,404C 1301.98,403.439 1301.64,402.772 1301.5,402C 1342.54,274.373 1383.88,146.873 1425.5,19.5 Z M 1465.5,124.5 C 1466.93,124.881 1467.76,125.881 1468,127.5C 1479.2,169.591 1490.7,211.591 1502.5,253.5C 1478.51,254.666 1454.51,254.833 1430.5,254C 1442.87,211.033 1454.53,167.866 1465.5,124.5 Z"/></g>
<g><path d="M 1876.5,20.5 C 1902.66,19.5022 1928.99,19.1688 1955.5,19.5C 1955.5,147.5 1955.5,275.5 1955.5,403.5C 1954.5,276.001 1954.17,148.334 1954.5,20.5C 1928.5,20.5 1902.5,20.5 1876.5,20.5 Z"/></g>
<g><path d="M 1223.5,25.5 C 1250.9,35.8983 1269.56,54.8983 1279.5,82.5C 1276.03,76.2288 1272.53,69.8955 1269,63.5C 1257.3,46.6282 1242.13,33.9616 1223.5,25.5 Z"/></g>
<g><path d="M 1048.5,44.5 C 1047.83,47.1667 1046.17,48.8333 1043.5,49.5C 1044.83,47.5 1046.5,45.8333 1048.5,44.5 Z"/></g>
<g><path d="M 1025.5,74.5 C 1026.04,74.56 1026.38,74.8933 1026.5,75.5C 1022.75,83.1026 1019.42,90.7693 1016.5,98.5C 1018.31,90.0592 1021.31,82.0592 1025.5,74.5 Z"/></g>
<g><path d="M 427.5,20.5 C 427.833,20.5 428.167,20.5 428.5,20.5C 366.469,119.359 304.135,217.359 241.5,314.5C 303.003,216.154 365.003,118.154 427.5,20.5 Z"/></g>
<g><path d="M 226.5,21.5 C 227.525,21.8966 227.692,22.5632 227,23.5C 165.392,121.067 103.559,218.4 41.5,315.5C 44.4487,308.942 47.9487,302.609 52,296.5C 110.177,204.805 168.344,113.138 226.5,21.5 Z"/></g>
<g><path d="M 1293.5,149.5 C 1293.5,152.833 1293.5,156.167 1293.5,159.5C 1266.83,159.5 1240.17,159.5 1213.5,159.5C 1213.5,157.167 1213.5,154.833 1213.5,152.5C 1214.46,154.265 1214.79,156.265 1214.5,158.5C 1240.5,158.5 1266.5,158.5 1292.5,158.5C 1292.19,155.287 1292.52,152.287 1293.5,149.5 Z"/></g>
<g><path d="M 1665.5,19.5 C 1695.17,19.1668 1724.84,19.5002 1754.5,20.5C 1794.78,98.0634 1834.78,175.73 1874.5,253.5C 1833.91,177.003 1793.57,99.6694 1753.5,21.5C 1724,20.8333 1694.67,20.1667 1665.5,19.5 Z"/></g>
<g><path d="M 1875.5,403.5 C 1831.77,320.385 1788.27,237.052 1745,153.5C 1744.5,236.833 1744.33,320.166 1744.5,403.5C 1743.17,319.332 1743.17,234.999 1744.5,150.5C 1789.13,234.779 1832.8,319.113 1875.5,403.5 Z"/></g>
<g><path d="M 1293.5,274.5 C 1292.52,271.713 1292.19,268.713 1292.5,265.5C 1266.5,265.5 1240.5,265.5 1214.5,265.5C 1214.79,267.735 1214.46,269.735 1213.5,271.5C 1213.5,269.167 1213.5,266.833 1213.5,264.5C 1240.17,264.5 1266.83,264.5 1293.5,264.5C 1293.5,267.833 1293.5,271.167 1293.5,274.5 Z"/></g>
<g><path d="M 213.5,520.5 C 212.566,521.568 212.232,522.901 212.5,524.5C 208.5,524.5 204.5,524.5 200.5,524.5C 197.992,512.997 191.492,509.997 181,515.5C 178.096,521.253 176.929,527.419 177.5,534C 177.228,540.022 178.062,545.855 180,551.5C 191.063,559.005 197.896,556.171 200.5,543C 204.821,542.501 209.154,542.334 213.5,542.5C 214.605,559.896 206.438,568.896 189,569.5C 182.314,569.27 176.147,567.437 170.5,564C 167.537,561.125 165.704,557.625 165,553.5C 163,540.5 163,527.5 165,514.5C 165.754,511.316 167.254,508.649 169.5,506.5C 173.046,504.228 176.713,502.228 180.5,500.5C 188.979,498.66 197.312,499.494 205.5,503C 210.377,507.79 213.044,513.623 213.5,520.5 Z"/></g>
<g><path d="M 354.5,499.5 C 363.162,498.663 371.495,499.829 379.5,503C 385.397,508.517 388.064,515.35 387.5,523.5C 383.154,523.666 378.821,523.499 374.5,523C 372.442,514.63 367.108,511.296 358.5,513C 354.835,514.668 352.668,517.501 352,521.5C 351.333,530.167 351.333,538.833 352,547.5C 354.834,554.666 360.001,557.166 367.5,555C 372.73,552.494 375.063,548.327 374.5,542.5C 370.563,542.793 366.73,542.46 363,541.5C 362.501,537.514 362.334,533.514 362.5,529.5C 371.167,529.5 379.833,529.5 388.5,529.5C 389.269,539.754 388.102,549.754 385,559.5C 381.967,563.938 377.8,566.771 372.5,568C 362.637,570.21 353.304,568.877 344.5,564C 340.87,560.238 338.703,555.738 338,550.5C 337.333,539.5 337.333,528.5 338,517.5C 338.697,513.072 340.363,509.072 343,505.5C 346.575,502.798 350.408,500.798 354.5,499.5 Z"/></g>
<g><path d="M 625.5,516.5 C 624.527,518.948 624.194,521.615 624.5,524.5C 620.173,524.984 616.173,524.318 612.5,522.5C 610.152,513.326 604.485,510.492 595.5,514C 593.19,515.637 591.69,517.804 591,520.5C 590.333,529.833 590.333,539.167 591,548.5C 594.625,555.551 600.125,557.385 607.5,554C 610.812,550.901 612.479,547.067 612.5,542.5C 616.833,542.5 621.167,542.5 625.5,542.5C 627.274,560.558 619.107,569.558 601,569.5C 587.92,569.986 579.92,563.986 577,551.5C 576.078,538.443 576.411,525.443 578,512.5C 582.356,502.582 590.023,498.249 601,499.5C 614.19,498.163 622.357,503.829 625.5,516.5 Z"/></g>
<g><path d="M 660.5,499.5 C 668.668,498.95 676.668,499.783 684.5,502C 691.217,506.259 694.717,512.426 695,520.5C 695.667,529.833 695.667,539.167 695,548.5C 692.676,563.144 684.009,570.144 669,569.5C 656.084,570.231 647.751,564.564 644,552.5C 641.804,539.096 642.137,525.762 645,512.5C 647.772,505.212 652.939,500.878 660.5,499.5 Z M 664.5,512.5 C 673.647,510.827 679.147,514.494 681,523.5C 681.667,530.5 681.667,537.5 681,544.5C 679.178,553.666 673.678,557.166 664.5,555C 661.667,553.5 659.5,551.333 658,548.5C 657.333,539.167 657.333,529.833 658,520.5C 659.305,517.039 661.471,514.372 664.5,512.5 Z"/></g>
<g><path d="M 918.5,541.5 C 919.482,538.038 919.815,534.371 919.5,530.5C 927.167,530.5 934.833,530.5 942.5,530.5C 942.177,537.022 942.51,543.355 943.5,549.5C 941.198,563.451 932.865,570.117 918.5,569.5C 909.958,569.584 902.792,566.584 897,560.5C 893.399,552.059 891.899,543.226 892.5,534C 889.337,507.829 900.67,496.496 926.5,500C 938.097,502.941 943.597,510.441 943,522.5C 938.599,523.467 934.099,523.8 929.5,523.5C 928.247,514.757 923.247,511.257 914.5,513C 912.376,514.122 910.543,515.622 909,517.5C 907.383,527.734 907.05,538.067 908,548.5C 912.128,555.489 917.961,557.322 925.5,554C 928.613,550.994 930.28,547.328 930.5,543C 926.312,542.824 922.312,542.324 918.5,541.5 Z"/></g>
<g><path d="M 1137.5,499.5 C 1143.18,499.334 1148.84,499.501 1154.5,500C 1162.23,501.395 1167.06,505.895 1169,513.5C 1170.02,517.44 1170.52,521.44 1170.5,525.5C 1165.83,525.5 1161.17,525.5 1156.5,525.5C 1155.8,514.3 1150.13,510.466 1139.5,514C 1137.11,515.952 1135.61,518.452 1135,521.5C 1134.33,529.833 1134.33,538.167 1135,546.5C 1137.29,554.398 1142.46,557.231 1150.5,555C 1154.64,552.061 1156.97,548.061 1157.5,543C 1161.5,542.333 1165.5,542.333 1169.5,543C 1171.26,560.417 1163.26,569.25 1145.5,569.5C 1131.69,570.202 1123.52,563.868 1121,550.5C 1120.33,539.5 1120.33,528.5 1121,517.5C 1122.24,507.435 1127.74,501.435 1137.5,499.5 Z"/></g>
<g><path d="M 1203.5,499.5 C 1209.51,499.334 1215.51,499.501 1221.5,500C 1227.81,501.23 1232.31,504.73 1235,510.5C 1236.42,515.412 1237.25,520.412 1237.5,525.5C 1232.83,525.5 1228.17,525.5 1223.5,525.5C 1223.19,515.688 1218.19,511.521 1208.5,513C 1204.83,514.668 1202.67,517.501 1202,521.5C 1201.33,530.167 1201.33,538.833 1202,547.5C 1205.73,555.601 1211.56,557.601 1219.5,553.5C 1222.41,550.441 1223.74,546.774 1223.5,542.5C 1227.85,542.334 1232.18,542.501 1236.5,543C 1238.26,560.417 1230.26,569.25 1212.5,569.5C 1198.69,570.202 1190.52,563.868 1188,550.5C 1187.33,539.5 1187.33,528.5 1188,517.5C 1189.12,507.884 1194.29,501.884 1203.5,499.5 Z"/></g>
<g><path d="M 1362.5,521.5 C 1358.7,520.517 1354.7,520.183 1350.5,520.5C 1350.74,519.209 1350.4,518.209 1349.5,517.5C 1346.06,512.809 1341.39,511.309 1335.5,513C 1330.18,516.951 1330.18,520.951 1335.5,525C 1342.26,526.285 1348.93,527.952 1355.5,530C 1361.93,534.189 1364.93,540.189 1364.5,548C 1363.7,562.959 1355.7,570.126 1340.5,569.5C 1334.19,569.148 1328.19,567.648 1322.5,565C 1319.59,562.01 1317.59,558.51 1316.5,554.5C 1317.47,552.393 1317.8,550.059 1317.5,547.5C 1321.5,547.5 1325.5,547.5 1329.5,547.5C 1332.43,555.658 1338.09,558.158 1346.5,555C 1351.2,551.623 1351.53,547.957 1347.5,544C 1341.04,541.366 1334.38,539.366 1327.5,538C 1323.78,536.9 1320.94,534.734 1319,531.5C 1313.11,505.717 1323.28,495.217 1349.5,500C 1360.59,503.136 1364.93,510.303 1362.5,521.5 Z"/></g>
<g><path d="M 1426.5,513.5 C 1425.53,515.607 1425.2,517.941 1425.5,520.5C 1421.5,520.5 1417.5,520.5 1413.5,520.5C 1410.86,512.471 1405.53,510.305 1397.5,514C 1393.31,518.46 1393.98,522.127 1399.5,525C 1405.13,526.46 1410.8,527.793 1416.5,529C 1422.44,530.605 1425.94,534.438 1427,540.5C 1430.99,559.872 1423.16,569.539 1403.5,569.5C 1398.01,569.025 1392.67,567.859 1387.5,566C 1382.08,561.962 1379.42,556.462 1379.5,549.5C 1383.72,547.964 1388.05,546.964 1392.5,546.5C 1395.85,555.904 1402.18,558.404 1411.5,554C 1414.57,549.675 1413.9,546.008 1409.5,543C 1403.25,541.082 1396.92,539.416 1390.5,538C 1385.13,535.968 1381.97,532.135 1381,526.5C 1379.06,517.437 1381.22,509.603 1387.5,503C 1396.9,499.172 1406.57,498.505 1416.5,501C 1422.27,503.266 1425.6,507.433 1426.5,513.5 Z"/></g>
<g><path d="M 1780.5,499.5 C 1787.91,499.152 1795.24,499.652 1802.5,501C 1808.33,502.833 1812.17,506.667 1814,512.5C 1815.59,525.443 1815.92,538.443 1815,551.5C 1811.78,564.302 1803.44,570.302 1790,569.5C 1775,570.153 1766.33,563.153 1764,548.5C 1763.12,537.117 1763.45,525.783 1765,514.5C 1767.45,506.552 1772.61,501.552 1780.5,499.5 Z M 1785.5,512.5 C 1793,510.833 1798.17,513.5 1801,520.5C 1801.92,530.574 1801.59,540.574 1800,550.5C 1794.21,556.312 1787.88,556.979 1781,552.5C 1779.72,550.283 1778.72,547.949 1778,545.5C 1777.33,538.167 1777.33,530.833 1778,523.5C 1778.76,518.582 1781.26,514.916 1785.5,512.5 Z"/></g>
<g><path d="M 304.5,500.5 C 308.298,501.483 312.298,501.817 316.5,501.5C 316.5,523.167 316.5,544.833 316.5,566.5C 312.298,566.183 308.298,566.517 304.5,567.5C 303.167,545.167 303.167,522.833 304.5,500.5 Z"/></g>
<g><path d="M 436.5,501.5 C 431.737,501.226 427.07,501.559 422.5,502.5C 424.397,501.195 426.731,500.529 429.5,500.5C 432.025,500.503 434.359,500.837 436.5,501.5 Z"/></g>
<g><path d="M 524.5,567.5 C 520.435,566.807 516.268,566.14 512,565.5C 504.42,551.338 496.587,537.338 488.5,523.5C 487.893,523.624 487.56,523.957 487.5,524.5C 487.5,538.5 487.5,552.5 487.5,566.5C 483.298,566.183 479.298,566.517 475.5,567.5C 474.167,545.5 474.167,523.5 475.5,501.5C 480.43,501.197 485.263,501.531 490,502.5C 496.374,515.476 503.208,527.476 510.5,538.5C 511.331,526.34 511.831,514.007 512,501.5C 516.401,500.533 520.901,500.2 525.5,500.5C 525.831,523.006 525.497,545.34 524.5,567.5 Z"/></g>
<g><path d="M 786.5,500.5 C 787.497,518.326 787.83,536.326 787.5,554.5C 796.506,554.334 805.506,554.5 814.5,555C 815.822,559.267 815.822,563.434 814.5,567.5C 801.344,566.504 788.01,566.171 774.5,566.5C 774.5,544.833 774.5,523.167 774.5,501.5C 778.702,501.817 782.702,501.483 786.5,500.5 Z"/></g>
<g><path d="M 871.5,527.5 C 870.518,530.962 870.185,534.629 870.5,538.5C 861.983,538.174 853.65,538.507 845.5,539.5C 845.5,544.5 845.5,549.5 845.5,554.5C 855.839,554.334 866.172,554.5 876.5,555C 877.464,559.066 877.797,563.233 877.5,567.5C 862.167,567.5 846.833,567.5 831.5,567.5C 831.333,545.497 831.5,523.497 832,501.5C 846.755,500.509 861.588,500.176 876.5,500.5C 876.797,504.767 876.464,508.934 875.5,513C 865.506,513.5 855.506,513.666 845.5,513.5C 845.5,517.833 845.5,522.167 845.5,526.5C 854.349,526.174 863.016,526.507 871.5,527.5 Z"/></g>
<g><path d="M 963.5,501.5 C 977.99,500.504 992.657,500.171 1007.5,500.5C 1007.5,504.5 1007.5,508.5 1007.5,512.5C 1006.52,509.038 1006.19,505.371 1006.5,501.5C 992.167,501.5 977.833,501.5 963.5,501.5 Z"/></g>
<g><path d="M 1294.5,527.5 C 1294.5,531.167 1294.5,534.833 1294.5,538.5C 1285.98,538.174 1277.65,538.507 1269.5,539.5C 1269.5,544.5 1269.5,549.5 1269.5,554.5C 1279.84,554.334 1290.17,554.5 1300.5,555C 1301.46,559.066 1301.8,563.233 1301.5,567.5C 1286.17,567.5 1270.83,567.5 1255.5,567.5C 1255.5,545.167 1255.5,522.833 1255.5,500.5C 1270.17,500.333 1284.84,500.5 1299.5,501C 1300.83,505 1300.83,509 1299.5,513C 1289.51,513.5 1279.51,513.666 1269.5,513.5C 1269.5,517.833 1269.5,522.167 1269.5,526.5C 1278.02,526.174 1286.35,526.507 1294.5,527.5 Z"/></g>
<g><path d="M 1548.5,501.5 C 1562.99,500.504 1577.66,500.171 1592.5,500.5C 1592.5,504.5 1592.5,508.5 1592.5,512.5C 1591.52,509.038 1591.19,505.371 1591.5,501.5C 1577.17,501.5 1562.83,501.5 1548.5,501.5 Z"/></g>
<g><path d="M 1655.5,500.5 C 1640.01,501.496 1624.34,501.83 1608.5,501.5C 1608.5,505.167 1608.5,508.833 1608.5,512.5C 1614.03,512.179 1619.36,512.512 1624.5,513.5C 1618.83,513.5 1613.17,513.5 1607.5,513.5C 1607.5,509.167 1607.5,504.833 1607.5,500.5C 1623.5,500.5 1639.5,500.5 1655.5,500.5 Z"/></g>
<g><path d="M 1655.5,500.5 C 1656.48,504.634 1656.82,508.968 1656.5,513.5C 1650.5,513.5 1644.5,513.5 1638.5,513.5C 1637.5,530.992 1637.17,548.659 1637.5,566.5C 1633.3,566.183 1629.3,566.517 1625.5,567.5C 1624.5,549.674 1624.17,531.674 1624.5,513.5C 1619.36,512.512 1614.03,512.179 1608.5,512.5C 1608.5,508.833 1608.5,505.167 1608.5,501.5C 1624.34,501.83 1640.01,501.496 1655.5,500.5 Z"/></g>
<g><path d="M 1683.5,502.5 C 1679.26,501.564 1674.93,501.231 1670.5,501.5C 1670.77,503.099 1670.43,504.432 1669.5,505.5C 1669.5,503.833 1669.5,502.167 1669.5,500.5C 1674.62,499.897 1679.29,500.564 1683.5,502.5 Z"/></g>
<g><path d="M 1716.5,502.5 C 1712.17,501.167 1707.83,501.167 1703.5,502.5C 1705.22,501.2 1707.39,500.533 1710,500.5C 1712.61,500.533 1714.78,501.2 1716.5,502.5 Z"/></g>
<g><path d="M 1749.5,500.5 C 1745.27,501.22 1740.94,501.887 1736.5,502.5C 1740.37,500.57 1744.71,499.903 1749.5,500.5 Z"/></g>
<g><path d="M 1749.5,500.5 C 1750.12,500.917 1750.46,501.584 1750.5,502.5C 1745.45,523.369 1740.12,544.036 1734.5,564.5C 1730.15,566.348 1725.48,567.015 1720.5,566.5C 1720.59,563.848 1719.92,561.515 1718.5,559.5C 1715.54,549.328 1712.7,538.995 1710,528.5C 1706.19,541.073 1702.69,553.739 1699.5,566.5C 1694.62,567.802 1689.78,567.802 1685,566.5C 1679.98,546.09 1674.81,525.756 1669.5,505.5C 1670.43,504.432 1670.77,503.099 1670.5,501.5C 1674.93,501.231 1679.26,501.564 1683.5,502.5C 1686.79,515.337 1689.96,528.337 1693,541.5C 1696.06,528.252 1699.56,515.252 1703.5,502.5C 1707.83,501.167 1712.17,501.167 1716.5,502.5C 1720.13,515.339 1723.63,528.339 1727,541.5C 1729.87,528.297 1733.04,515.297 1736.5,502.5C 1740.94,501.887 1745.27,501.22 1749.5,500.5 Z"/></g>
<g><path d="M 1867.5,500.5 C 1879.56,502.237 1884.89,509.237 1883.5,521.5C 1884.67,530.826 1881.33,537.826 1873.5,542.5C 1877.93,549.597 1881.93,556.931 1885.5,564.5C 1880.61,566.056 1875.61,567.056 1870.5,567.5C 1865.77,559.724 1861.27,551.724 1857,543.5C 1854.62,542.565 1852.12,542.232 1849.5,542.5C 1848.51,550.316 1848.17,558.316 1848.5,566.5C 1844.5,566.5 1840.5,566.5 1836.5,566.5C 1836.5,544.833 1836.5,523.167 1836.5,501.5C 1847.01,501.828 1857.35,501.494 1867.5,500.5 Z M 1849.5,513.5 C 1854.51,513.334 1859.51,513.501 1864.5,514C 1869.07,516.541 1870.57,520.375 1869,525.5C 1867.83,526.667 1866.67,527.833 1865.5,529C 1860.18,529.499 1854.84,529.666 1849.5,529.5C 1849.5,524.167 1849.5,518.833 1849.5,513.5 Z"/></g>
<g><path d="M 1954.5,500.5 C 1955.62,502.089 1955.45,503.756 1954,505.5C 1948.3,512.69 1942.47,519.69 1936.5,526.5C 1936.57,526.062 1936.4,525.728 1936,525.5C 1934.81,527.044 1934.48,528.711 1935,530.5C 1941.27,542.059 1947.77,553.392 1954.5,564.5C 1950.09,566.138 1945.42,567.138 1940.5,567.5C 1934.85,558.889 1929.69,549.889 1925,540.5C 1922.64,543.69 1920.14,546.69 1917.5,549.5C 1916.51,554.975 1916.18,560.642 1916.5,566.5C 1912.5,566.5 1908.5,566.5 1904.5,566.5C 1904.5,544.833 1904.5,523.167 1904.5,501.5C 1908.5,501.5 1912.5,501.5 1916.5,501.5C 1916.17,510.857 1916.5,520.19 1917.5,529.5C 1918.92,528.995 1919.59,527.995 1919.5,526.5C 1921.69,522.793 1924.36,519.46 1927.5,516.5C 1931.82,512.173 1935.82,507.506 1939.5,502.5C 1944.65,501.833 1949.65,501.166 1954.5,500.5 Z"/></g>
<g><path d="M 60.5,501.5 C 54.5,501.5 48.5,501.5 42.5,501.5C 42.5,523.167 42.5,544.833 42.5,566.5C 46.1667,566.5 49.8333,566.5 53.5,566.5C 53.2213,550.571 53.5546,536.904 54.5,525.5C 54.5,539.5 54.5,553.5 54.5,567.5C 50.1667,567.5 45.8333,567.5 41.5,567.5C 41.5,545.167 41.5,522.833 41.5,500.5C 48.0221,500.177 54.3554,500.51 60.5,501.5 Z"/></g>
<g><path d="M 60.5,501.5 C 65.4012,515.031 70.2345,528.697 75,542.5C 79.7655,528.697 84.5988,515.031 89.5,501.5C 95.5,501.5 101.5,501.5 107.5,501.5C 107.5,523.167 107.5,544.833 107.5,566.5C 103.298,566.183 99.2984,566.517 95.5,567.5C 94.6689,554.006 94.1689,540.339 94,526.5C 89.9621,539.454 85.4621,552.121 80.5,564.5C 77.1691,566.298 73.5025,566.964 69.5,566.5C 64.6968,552.757 59.6968,539.09 54.5,525.5C 53.5546,536.904 53.2213,550.571 53.5,566.5C 49.8333,566.5 46.1667,566.5 42.5,566.5C 42.5,544.833 42.5,523.167 42.5,501.5C 48.5,501.5 54.5,501.5 60.5,501.5 Z"/></g>
<g><path d="M 89.5,501.5 C 95.6446,500.51 101.978,500.177 108.5,500.5C 108.5,522.833 108.5,545.167 108.5,567.5C 104.167,567.5 99.8333,567.5 95.5,567.5C 99.2984,566.517 103.298,566.183 107.5,566.5C 107.5,544.833 107.5,523.167 107.5,501.5C 101.5,501.5 95.5,501.5 89.5,501.5 Z"/></g>
<g><path d="M 143.5,501.5 C 139.5,501.5 135.5,501.5 131.5,501.5C 131.5,523.167 131.5,544.833 131.5,566.5C 135.702,566.183 139.702,566.517 143.5,567.5C 139.167,567.5 134.833,567.5 130.5,567.5C 130.5,545.167 130.5,522.833 130.5,500.5C 135.032,500.182 139.366,500.515 143.5,501.5 Z"/></g>
<g><path d="M 143.5,501.5 C 144.833,523.5 144.833,545.5 143.5,567.5C 139.702,566.517 135.702,566.183 131.5,566.5C 131.5,544.833 131.5,523.167 131.5,501.5C 135.5,501.5 139.5,501.5 143.5,501.5 Z"/></g>
<g><path d="M 180.5,500.5 C 176.713,502.228 173.046,504.228 169.5,506.5C 172.127,502.685 175.794,500.685 180.5,500.5 Z"/></g>
<g><path d="M 232.5,501.5 C 236.5,501.5 240.5,501.5 244.5,501.5C 244.174,510.017 244.507,518.35 245.5,526.5C 253.167,526.5 260.833,526.5 268.5,526.5C 269.493,518.35 269.826,510.017 269.5,501.5C 273.5,501.5 277.5,501.5 281.5,501.5C 281.5,523.167 281.5,544.833 281.5,566.5C 277.5,566.5 273.5,566.5 269.5,566.5C 269.826,557.651 269.493,548.984 268.5,540.5C 260.833,540.5 253.167,540.5 245.5,540.5C 244.507,548.984 244.174,557.651 244.5,566.5C 240.298,566.183 236.298,566.517 232.5,567.5C 231.167,545.5 231.167,523.5 232.5,501.5 Z"/></g>
<g><path d="M 232.5,501.5 C 236.634,500.515 240.968,500.182 245.5,500.5C 245.5,509.167 245.5,517.833 245.5,526.5C 244.507,518.35 244.174,510.017 244.5,501.5C 240.5,501.5 236.5,501.5 232.5,501.5 Z"/></g>
<g><path d="M 268.5,540.5 C 269.493,548.984 269.826,557.651 269.5,566.5C 273.5,566.5 277.5,566.5 281.5,566.5C 281.5,544.833 281.5,523.167 281.5,501.5C 277.5,501.5 273.5,501.5 269.5,501.5C 269.826,510.017 269.493,518.35 268.5,526.5C 268.5,517.833 268.5,509.167 268.5,500.5C 273.167,500.5 277.833,500.5 282.5,500.5C 282.5,522.833 282.5,545.167 282.5,567.5C 277.833,567.5 273.167,567.5 268.5,567.5C 268.5,558.5 268.5,549.5 268.5,540.5 Z"/></g>
<g><path d="M 304.5,500.5 C 308.833,500.5 313.167,500.5 317.5,500.5C 317.5,522.833 317.5,545.167 317.5,567.5C 313.167,567.5 308.833,567.5 304.5,567.5C 308.298,566.517 312.298,566.183 316.5,566.5C 316.5,544.833 316.5,523.167 316.5,501.5C 312.298,501.817 308.298,501.483 304.5,500.5 Z"/></g>
<g><path d="M 436.5,501.5 C 444.206,522.28 451.539,543.28 458.5,564.5C 453.807,566.36 448.807,567.026 443.5,566.5C 441.975,562.591 440.641,558.591 439.5,554.5C 432.833,553.167 426.167,553.167 419.5,554.5C 418.336,558.013 417.002,561.346 415.5,564.5C 410.946,566.047 406.279,567.047 401.5,567.5C 400.903,567.265 400.57,566.765 400.5,566C 407.371,544.548 414.705,523.381 422.5,502.5C 427.07,501.559 431.737,501.226 436.5,501.5 Z M 428.5,522.5 C 429.586,522.62 430.253,523.287 430.5,524.5C 432.075,529.725 433.742,534.892 435.5,540C 431.5,540.667 427.5,540.667 423.5,540C 425.67,534.322 427.337,528.488 428.5,522.5 Z"/></g>
<g><path d="M 715.5,501.5 C 719.5,501.5 723.5,501.5 727.5,501.5C 727.17,519.341 727.503,537.008 728.5,554.5C 738.015,554.173 747.348,554.506 756.5,555.5C 755.518,558.962 755.185,562.629 755.5,566.5C 741.99,566.171 728.656,566.504 715.5,567.5C 714.167,545.5 714.167,523.5 715.5,501.5 Z"/></g>
<g><path d="M 715.5,501.5 C 719.634,500.515 723.968,500.182 728.5,500.5C 728.5,518.5 728.5,536.5 728.5,554.5C 727.503,537.008 727.17,519.341 727.5,501.5C 723.5,501.5 719.5,501.5 715.5,501.5 Z"/></g>
<g><path d="M 786.5,500.5 C 782.702,501.483 778.702,501.817 774.5,501.5C 774.5,523.167 774.5,544.833 774.5,566.5C 788.01,566.171 801.344,566.504 814.5,567.5C 800.833,567.5 787.167,567.5 773.5,567.5C 773.5,545.167 773.5,522.833 773.5,500.5C 777.833,500.5 782.167,500.5 786.5,500.5 Z"/></g>
<g><path d="M 963.5,501.5 C 977.833,501.5 992.167,501.5 1006.5,501.5C 1006.19,505.371 1006.52,509.038 1007.5,512.5C 997.681,513.494 987.681,513.827 977.5,513.5C 977.5,517.833 977.5,522.167 977.5,526.5C 986.017,526.174 994.35,526.507 1002.5,527.5C 1001.52,530.962 1001.19,534.629 1001.5,538.5C 993.316,538.174 985.316,538.508 977.5,539.5C 977.5,544.5 977.5,549.5 977.5,554.5C 987.506,554.334 997.506,554.5 1007.5,555C 1008.46,559.066 1008.8,563.233 1008.5,567.5C 993.167,567.5 977.833,567.5 962.5,567.5C 962.169,545.327 962.503,523.327 963.5,501.5 Z"/></g>
<g><path d="M 1098.5,539.5 C 1101.48,547.43 1104.48,555.43 1107.5,563.5C 1106.6,564.209 1106.26,565.209 1106.5,566.5C 1101.52,567.015 1096.85,566.348 1092.5,564.5C 1091,561.346 1089.66,558.013 1088.5,554.5C 1081.87,553.503 1075.2,553.17 1068.5,553.5C 1067.57,557.969 1066.23,562.303 1064.5,566.5C 1060.17,566.5 1055.83,566.5 1051.5,566.5C 1051.74,565.209 1051.4,564.209 1050.5,563.5C 1056.66,545.022 1062.99,526.689 1069.5,508.5C 1070.86,506.78 1071.86,504.78 1072.5,502.5C 1076.78,501.508 1081.12,501.174 1085.5,501.5C 1089.06,514.528 1093.4,527.194 1098.5,539.5 Z M 1078.5,522.5 C 1080.64,528.003 1082.64,533.669 1084.5,539.5C 1080.54,540.66 1076.54,540.827 1072.5,540C 1074.8,534.256 1076.8,528.423 1078.5,522.5 Z"/></g>
<g><path d="M 1098.5,539.5 C 1093.4,527.194 1089.06,514.528 1085.5,501.5C 1081.12,501.174 1076.78,501.508 1072.5,502.5C 1071.86,504.78 1070.86,506.78 1069.5,508.5C 1069.76,506.063 1070.42,503.729 1071.5,501.5C 1076.46,500.506 1081.46,500.173 1086.5,500.5C 1090.5,513.5 1094.5,526.5 1098.5,539.5 Z"/></g>
<g><path d="M 1491.5,501.5 C 1486.83,501.5 1482.17,501.5 1477.5,501.5C 1477.5,523.167 1477.5,544.833 1477.5,566.5C 1481.17,566.5 1484.83,566.5 1488.5,566.5C 1488.17,552.151 1488.5,537.818 1489.5,523.5C 1490.11,523.624 1490.44,523.957 1490.5,524.5C 1489.83,524.5 1489.5,524.833 1489.5,525.5C 1489.5,539.5 1489.5,553.5 1489.5,567.5C 1485.17,567.5 1480.83,567.5 1476.5,567.5C 1476.5,545.167 1476.5,522.833 1476.5,500.5C 1481.69,500.179 1486.69,500.513 1491.5,501.5 Z"/></g>
<g><path d="M 1491.5,501.5 C 1498.83,514.167 1506.17,526.833 1513.5,539.5C 1514.44,529.097 1514.78,516.43 1514.5,501.5C 1518.17,501.5 1521.83,501.5 1525.5,501.5C 1525.5,523.167 1525.5,544.833 1525.5,566.5C 1521.5,566.5 1517.5,566.5 1513.5,566.5C 1506.34,552.172 1498.67,538.172 1490.5,524.5C 1490.44,523.957 1490.11,523.624 1489.5,523.5C 1488.5,537.818 1488.17,552.151 1488.5,566.5C 1484.83,566.5 1481.17,566.5 1477.5,566.5C 1477.5,544.833 1477.5,523.167 1477.5,501.5C 1482.17,501.5 1486.83,501.5 1491.5,501.5 Z"/></g>
<g><path d="M 1513.5,567.5 C 1513.5,567.167 1513.5,566.833 1513.5,566.5C 1517.5,566.5 1521.5,566.5 1525.5,566.5C 1525.5,544.833 1525.5,523.167 1525.5,501.5C 1521.83,501.5 1518.17,501.5 1514.5,501.5C 1514.78,516.43 1514.44,529.097 1513.5,539.5C 1513.5,526.5 1513.5,513.5 1513.5,500.5C 1517.83,500.5 1522.17,500.5 1526.5,500.5C 1526.5,522.833 1526.5,545.167 1526.5,567.5C 1522.17,567.5 1517.83,567.5 1513.5,567.5 Z"/></g>
<g><path d="M 1548.5,501.5 C 1562.83,501.5 1577.17,501.5 1591.5,501.5C 1591.19,505.371 1591.52,509.038 1592.5,512.5C 1582.68,513.494 1572.68,513.827 1562.5,513.5C 1562.5,517.833 1562.5,522.167 1562.5,526.5C 1570.84,526.334 1579.17,526.5 1587.5,527C 1588.46,531.066 1588.8,535.233 1588.5,539.5C 1579.83,539.5 1571.17,539.5 1562.5,539.5C 1562.5,544.5 1562.5,549.5 1562.5,554.5C 1573.01,554.172 1583.35,554.506 1593.5,555.5C 1592.52,558.962 1592.19,562.629 1592.5,566.5C 1577.66,566.171 1562.99,566.504 1548.5,567.5C 1547.17,545.5 1547.17,523.5 1548.5,501.5 Z"/></g>
<g><path d="M 1867.5,500.5 C 1857.35,501.494 1847.01,501.828 1836.5,501.5C 1836.5,523.167 1836.5,544.833 1836.5,566.5C 1840.5,566.5 1844.5,566.5 1848.5,566.5C 1848.17,558.316 1848.51,550.316 1849.5,542.5C 1849.5,550.833 1849.5,559.167 1849.5,567.5C 1844.83,567.5 1840.17,567.5 1835.5,567.5C 1835.5,545.167 1835.5,522.833 1835.5,500.5C 1846.17,500.5 1856.83,500.5 1867.5,500.5 Z"/></g>
<g><path d="M 1919.5,526.5 C 1919.59,527.995 1918.92,528.995 1917.5,529.5C 1916.5,520.19 1916.17,510.857 1916.5,501.5C 1912.5,501.5 1908.5,501.5 1904.5,501.5C 1904.5,523.167 1904.5,544.833 1904.5,566.5C 1908.5,566.5 1912.5,566.5 1916.5,566.5C 1916.18,560.642 1916.51,554.975 1917.5,549.5C 1917.5,555.5 1917.5,561.5 1917.5,567.5C 1912.83,567.5 1908.17,567.5 1903.5,567.5C 1903.5,545.167 1903.5,522.833 1903.5,500.5C 1908.17,500.5 1912.83,500.5 1917.5,500.5C 1917.33,509.506 1917.5,518.506 1918,527.5C 1918.38,526.944 1918.88,526.611 1919.5,526.5 Z"/></g>
<g><path d="M 1954.5,500.5 C 1949.65,501.166 1944.65,501.833 1939.5,502.5C 1935.82,507.506 1931.82,512.173 1927.5,516.5C 1930.73,511.256 1934.4,506.256 1938.5,501.5C 1943.79,500.505 1949.13,500.172 1954.5,500.5 Z"/></g>
<g><path d="M 1638.5,513.5 C 1638.5,531.5 1638.5,549.5 1638.5,567.5C 1634.17,567.5 1629.83,567.5 1625.5,567.5C 1629.3,566.517 1633.3,566.183 1637.5,566.5C 1637.17,548.659 1637.5,530.992 1638.5,513.5 Z"/></g>
<g><path d="M 1349.5,517.5 C 1350.4,518.209 1350.74,519.209 1350.5,520.5C 1354.7,520.183 1358.7,520.517 1362.5,521.5C 1358.17,521.5 1353.83,521.5 1349.5,521.5C 1349.5,520.167 1349.5,518.833 1349.5,517.5 Z"/></g>
<g><path d="M 1426.5,513.5 C 1426.5,516.167 1426.5,518.833 1426.5,521.5C 1421.97,521.818 1417.63,521.485 1413.5,520.5C 1417.5,520.5 1421.5,520.5 1425.5,520.5C 1425.2,517.941 1425.53,515.607 1426.5,513.5 Z"/></g>
<g><path d="M 213.5,520.5 C 213.5,522.167 213.5,523.833 213.5,525.5C 208.968,525.818 204.634,525.485 200.5,524.5C 204.5,524.5 208.5,524.5 212.5,524.5C 212.232,522.901 212.566,521.568 213.5,520.5 Z"/></g>
<g><path d="M 487.5,524.5 C 488.338,524.842 488.672,525.508 488.5,526.5C 488.5,540.167 488.5,553.833 488.5,567.5C 484.167,567.5 479.833,567.5 475.5,567.5C 479.298,566.517 483.298,566.183 487.5,566.5C 487.5,552.5 487.5,538.5 487.5,524.5 Z"/></g>
<g><path d="M 625.5,516.5 C 625.5,519.5 625.5,522.5 625.5,525.5C 621.167,525.5 616.833,525.5 612.5,525.5C 612.5,524.5 612.5,523.5 612.5,522.5C 616.173,524.318 620.173,524.984 624.5,524.5C 624.194,521.615 624.527,518.948 625.5,516.5 Z"/></g>
<g><path d="M 475.5,501.5 C 480.567,500.176 485.734,500.176 491,501.5C 497.525,513.887 504.025,526.22 510.5,538.5C 503.208,527.476 496.374,515.476 490,502.5C 485.263,501.531 480.43,501.197 475.5,501.5 Z"/></g>
<g><path d="M 943.5,549.5 C 942.51,543.355 942.177,537.022 942.5,530.5C 934.833,530.5 927.167,530.5 919.5,530.5C 919.815,534.371 919.482,538.038 918.5,541.5C 918.5,537.5 918.5,533.5 918.5,529.5C 926.833,529.5 935.167,529.5 943.5,529.5C 943.5,536.167 943.5,542.833 943.5,549.5 Z"/></g>
<g><path d="M 871.5,527.5 C 871.5,531.5 871.5,535.5 871.5,539.5C 862.833,539.5 854.167,539.5 845.5,539.5C 853.65,538.507 861.983,538.174 870.5,538.5C 870.185,534.629 870.518,530.962 871.5,527.5 Z"/></g>
<g><path d="M 1002.5,527.5 C 1002.5,531.5 1002.5,535.5 1002.5,539.5C 994.167,539.5 985.833,539.5 977.5,539.5C 985.316,538.508 993.316,538.174 1001.5,538.5C 1001.19,534.629 1001.52,530.962 1002.5,527.5 Z"/></g>
<g><path d="M 1294.5,527.5 C 1295.48,531.298 1295.82,535.298 1295.5,539.5C 1286.83,539.5 1278.17,539.5 1269.5,539.5C 1277.65,538.507 1285.98,538.174 1294.5,538.5C 1294.5,534.833 1294.5,531.167 1294.5,527.5 Z"/></g>
<g><path d="M 245.5,540.5 C 245.5,549.5 245.5,558.5 245.5,567.5C 241.167,567.5 236.833,567.5 232.5,567.5C 236.298,566.517 240.298,566.183 244.5,566.5C 244.174,557.651 244.507,548.984 245.5,540.5 Z"/></g>
<g><path d="M 1936.5,526.5 C 1936.59,527.496 1936.25,528.329 1935.5,529C 1942.31,540.78 1948.97,552.613 1955.5,564.5C 1955.17,564.5 1954.83,564.5 1954.5,564.5C 1947.77,553.392 1941.27,542.059 1935,530.5C 1934.48,528.711 1934.81,527.044 1936,525.5C 1936.4,525.728 1936.57,526.062 1936.5,526.5 Z"/></g>
<g><path d="M 1489.5,525.5 C 1489.5,524.833 1489.83,524.5 1490.5,524.5C 1498.67,538.172 1506.34,552.172 1513.5,566.5C 1513.5,566.833 1513.5,567.167 1513.5,567.5C 1505.5,553.5 1497.5,539.5 1489.5,525.5 Z"/></g>
<g><path d="M 1329.5,547.5 C 1325.5,547.5 1321.5,547.5 1317.5,547.5C 1317.8,550.059 1317.47,552.393 1316.5,554.5C 1316.5,551.833 1316.5,549.167 1316.5,546.5C 1321.03,546.182 1325.37,546.515 1329.5,547.5 Z"/></g>
<g><path d="M 1392.5,546.5 C 1388.05,546.964 1383.72,547.964 1379.5,549.5C 1379.5,548.5 1379.5,547.5 1379.5,546.5C 1383.83,546.5 1388.17,546.5 1392.5,546.5 Z"/></g>
<g><path d="M 487.5,524.5 C 487.56,523.957 487.893,523.624 488.5,523.5C 496.587,537.338 504.42,551.338 512,565.5C 516.268,566.14 520.435,566.807 524.5,567.5C 519.901,567.8 515.401,567.467 511,566.5C 503.726,552.942 496.226,539.609 488.5,526.5C 488.672,525.508 488.338,524.842 487.5,524.5 Z"/></g>
<g><path d="M 80.5,564.5 C 80.5,565.5 80.5,566.5 80.5,567.5C 76.6286,567.815 72.9619,567.482 69.5,566.5C 73.5025,566.964 77.1691,566.298 80.5,564.5 Z"/></g>
<g><path d="M 415.5,564.5 C 415.5,565.5 415.5,566.5 415.5,567.5C 410.833,567.5 406.167,567.5 401.5,567.5C 406.279,567.047 410.946,566.047 415.5,564.5 Z"/></g>
<g><path d="M 458.5,564.5 C 458.5,565.5 458.5,566.5 458.5,567.5C 453.305,567.821 448.305,567.487 443.5,566.5C 448.807,567.026 453.807,566.36 458.5,564.5 Z"/></g>
<g><path d="M 756.5,555.5 C 756.5,559.5 756.5,563.5 756.5,567.5C 742.833,567.5 729.167,567.5 715.5,567.5C 728.656,566.504 741.99,566.171 755.5,566.5C 755.185,562.629 755.518,558.962 756.5,555.5 Z"/></g>
<g><path d="M 1050.5,563.5 C 1051.4,564.209 1051.74,565.209 1051.5,566.5C 1055.83,566.5 1060.17,566.5 1064.5,566.5C 1060.03,567.486 1055.36,567.819 1050.5,567.5C 1050.5,566.167 1050.5,564.833 1050.5,563.5 Z"/></g>
<g><path d="M 1107.5,563.5 C 1107.5,564.833 1107.5,566.167 1107.5,567.5C 1102.5,567.5 1097.5,567.5 1092.5,567.5C 1092.5,566.5 1092.5,565.5 1092.5,564.5C 1096.85,566.348 1101.52,567.015 1106.5,566.5C 1106.26,565.209 1106.6,564.209 1107.5,563.5 Z"/></g>
<g><path d="M 1593.5,555.5 C 1593.5,559.5 1593.5,563.5 1593.5,567.5C 1578.5,567.5 1563.5,567.5 1548.5,567.5C 1562.99,566.504 1577.66,566.171 1592.5,566.5C 1592.19,562.629 1592.52,558.962 1593.5,555.5 Z"/></g>
<g><path d="M 1718.5,559.5 C 1719.92,561.515 1720.59,563.848 1720.5,566.5C 1725.48,567.015 1730.15,566.348 1734.5,564.5C 1734.5,565.5 1734.5,566.5 1734.5,567.5C 1729.5,567.5 1724.5,567.5 1719.5,567.5C 1719.17,564.833 1718.83,562.167 1718.5,559.5 Z"/></g>
<g><path d="M 1885.5,564.5 C 1885.5,565.5 1885.5,566.5 1885.5,567.5C 1880.5,567.5 1875.5,567.5 1870.5,567.5C 1875.61,567.056 1880.61,566.056 1885.5,564.5 Z"/></g>
<g><path d="M 1954.5,564.5 C 1954.83,564.5 1955.17,564.5 1955.5,564.5C 1955.5,565.5 1955.5,566.5 1955.5,567.5C 1950.5,567.5 1945.5,567.5 1940.5,567.5C 1945.42,567.138 1950.09,566.138 1954.5,564.5 Z"/></g>
</svg>

<svg xmlns="http://www.w3.org/2000/svg" width="2000" height="578" style="shape-rendering:geometricPrecision;text-rendering:geometricPrecision;image-rendering:optimizeQuality;fill-rule:evenodd;clip-rule:evenodd">
  <path d="M1224 26a110 110 0 0 1 56 57l8 25c3 13 5 27 6 42-1 2-2 5-1 9h-78l-1-6c-3-48-28-70-75-64-23 4-37 17-43 39l-4 24v121c2 46 26 66 72 62 20-2 35-12 43-31a153 153 0 0 0 8-38h78c-1 3 0 6 1 9-3 91-51 137-142 137-23-1-46-4-67-11-37-14-61-40-70-78-6-22-8-44-8-66-1-42 0-83 2-124a141 141 0 0 1 18-57l-1-1c4-10 10-18 18-25l5-5c16-15 34-24 56-28 34-6 68-6 102 2 6 1 11 3 17 7ZM970 21c-42-1-83 0-123 2v-3c41-1 82 0 123 1ZM1666 20l88 2 121 232 2-233h78c-1 127 0 255 1 383h-80l-131-253c-2 84-2 168 0 253h-80c-1-129-1-257 1-384ZM42 316A63210 63210 0 0 0 228 20c30-1 60-1 90 1v88L132 404H42c-2-30-2-59 0-88ZM429 21h88c-1 29 0 59 1 89L332 404l-91 1c-1-31 0-61 1-90L429 21Z"/>
  <path d="M428 21c29-1 59-2 90-1v90c-1-30-2-60-1-89h-89ZM695 26l-2-4c-40-1-80-2-120-1l-1 383V20c40-1 81 0 122 1l1 5Z"/>
  <path d="m695 26 75 238 77-241c40-2 81-3 123-2v383h-84l-1-276-87 277h-58l-88-277-1 276h-79l1-383c40-1 80 0 120 1l2 4ZM1426 20h87l122 384h-88l-23-75c-38-1-76-2-114-1l-23 76a1763 1763 0 0 1-85-2l124-382Zm40 105a9077 9077 0 0 0 37 129h-72l35-129ZM1877 21c26-1 52-2 79-1v384c-1-128-2-256-1-383h-78ZM1224 26c27 10 46 29 56 57l-11-19c-12-17-27-30-45-38ZM1049 45l-5 5 5-5ZM1026 75l1 1c-4 7-8 15-10 23 1-9 4-17 9-24ZM428 21h1a28267 28267 0 0 1-1 0ZM227 22v2a63210 63210 0 0 1 0-2ZM1294 150v10h-80v-7l1 6h78c-1-4 0-7 1-9ZM1666 20c29-1 59 0 89 1a38647 38647 0 0 1-1 1l-88-2ZM1876 404l-131-250a31095 31095 0 0 0 0-3l131 253ZM1294 275c-1-3-2-6-1-9h-78l-1 6v-7h80v10ZM214 521c-1 1-2 2-1 4h-12c-3-12-10-15-20-9-3 5-4 11-3 18-1 6 0 12 2 18 11 7 18 4 21-9h13c1 17-8 26-25 27-7-1-13-3-18-6-3-3-5-6-6-10-2-13-2-26 0-39 1-4 2-6 5-8 3-3 7-5 11-6 8-2 16-2 25 2 4 5 7 11 8 18ZM355 500c8-1 16 0 25 3 5 6 8 12 8 21l-13-1c-3-8-8-12-16-10-4 2-6 5-7 9v26c3 7 8 9 16 7 5-3 7-7 7-12l-12-1v-12h26c0 10-1 20-4 30-3 4-7 7-12 8-10 2-20 1-28-4-4-4-6-8-7-13v-33c1-5 2-9 5-12 4-3 7-5 12-6ZM626 517c-1 2-2 5-1 8l-12-2c-3-10-9-13-17-9-3 2-4 4-5 7v28c4 7 9 8 17 5 3-3 4-7 5-11h13c1 18-7 27-25 27-13 0-21-6-24-18-1-14-1-27 1-39 4-10 12-15 23-13 13-2 21 4 25 17ZM661 500c8-1 16 0 24 2 6 4 10 10 10 19v28c-2 14-11 21-26 21-13 0-21-5-25-17-2-14-2-27 1-40 3-8 8-12 16-13Zm4 13c9-2 14 1 16 11v21c-2 9-7 12-16 10-3-1-5-4-7-6v-28c1-4 3-7 7-8ZM919 542l1-11h23c-1 6 0 12 1 19-3 13-11 20-25 20-9 0-16-3-22-9-4-9-5-18-4-27-4-26 8-38 34-34 11 3 17 10 16 23l-13 1c-2-9-7-13-15-11-3 1-4 3-6 5-2 10-2 20-1 31 4 6 10 8 18 5 3-3 4-7 5-11l-12-1ZM1138 500h17c7 1 12 6 14 14l2 12h-14c-1-12-7-16-17-12-3 2-4 4-5 8v25c2 7 7 10 16 8 4-3 6-7 7-12h12c1 17-7 26-24 27-14 0-22-6-25-19v-33c1-11 7-17 17-18ZM1204 500h18c6 1 10 5 13 11l3 15h-14c-1-10-6-14-15-13-4 2-6 5-7 9v26c4 8 10 10 18 6 2-4 4-7 4-11h13c1 17-7 26-24 27-14 0-22-6-25-19v-33c1-10 6-16 16-18ZM1363 522c-4-1-8-2-12-1l-1-3c-4-5-9-7-14-5-6 4-6 8 0 12l20 5c6 4 9 10 9 18-1 15-9 22-24 22-7-1-13-2-18-5-3-3-5-6-6-10l1-7h12c2 8 8 10 17 7 4-3 5-7 1-11l-20-6c-4-1-7-3-9-6-6-26 4-37 31-32 11 3 15 10 13 22ZM1427 514c-1 2-2 4-1 7h-12c-3-9-8-11-16-7-5 4-4 8 2 11l17 4c5 2 9 5 10 12 4 19-4 29-23 29l-16-4c-6-4-9-10-8-16 4-2 8-3 13-3 3 9 9 11 19 7 3-4 2-8-2-11l-19-5c-6-2-9-6-10-11-2-10 0-17 7-24 9-4 19-4 29-2 5 2 9 6 10 13ZM1781 500c7-1 14 0 22 1 5 2 9 6 11 12 2 12 2 25 1 39-3 12-12 18-25 18-15 0-24-7-26-21-1-12-1-23 1-34 2-8 8-13 16-15Zm5 13c7-2 12 1 15 8 1 10 1 20-1 30-6 5-12 6-19 2l-3-7v-22c1-5 3-9 8-11ZM305 501l12 1v65c-5-1-9 0-12 1-2-23-2-45 0-67ZM437 502c-5-1-10 0-14 1 1-2 4-2 7-2l7 1ZM525 568l-13-2a1286 1286 0 0 0-24-41v42c-5-1-9 0-12 1-2-22-2-44 0-66 4-1 9 0 14 1l21 36 1-37c4-1 9-2 14-1l-1 67ZM787 501l1 54h27v13c-14-1-27-2-40-1v-65l12-1ZM872 528c-1 3-2 7-1 11-9-1-17 0-25 1v15h31l1 13h-46v-66c15-1 30-2 45-1l-1 12-30 1v13c8-1 17 0 26 1ZM964 502c14-1 29-2 44-1v12c-1-4-2-8-1-11h-43ZM1295 528v11c-9-1-17 0-25 1v15h31l1 13h-46v-67h44v12l-30 1v13c8-1 16 0 25 1ZM1549 502c14-1 29-2 44-1v12c-1-4-2-8-1-11h-43ZM1656 501l-47 1v11c5-1 10 0 16 1h-17v-13h48Z"/>
  <path d="m1656 501 1 13h-18c-1 17-2 35-1 53-5-1-9 0-12 1-1-18-2-36-1-54-6-1-11-2-16-1v-11l47-1ZM1684 503c-5-1-9-2-13-1l-1 4v-5c5-1 9 0 14 2ZM1717 503c-5-2-9-2-13 0 1-2 3-2 6-2s5 0 7 2ZM1750 501Z"/>
  <path d="m1750 501 1 2-16 62-14 2-2-7-9-31-10 38h-15a4139 4139 0 0 0-14-65c4-1 8 0 13 1l9 39 11-39c4-2 8-2 13 0l10 39 10-39 13-2ZM1868 501c12 1 17 8 16 21 1 9-3 16-10 21l12 22-15 3-14-24c-2-1-5-2-7-1-1 7-2 15-1 24h-12v-65l31-1Zm-18 13h15c4 3 6 6 4 12l-3 3-16 1v-16ZM1955 501a553 553 0 0 1-19 30c5 11 12 22 19 34l-14 3-16-27-7 9c-1 5-2 11-1 17h-12v-65h12c-1 9 0 18 1 28l2-3c2-4 4-8 8-10l12-14 15-2ZM61 502H43v65h11c-1-16 0-30 1-41v42H42v-67c6-1 12 0 19 1Z"/>
  <path d="m61 502 14 41 15-41h18v65c-5-1-9 0-12 1l-2-41-13 38-11 2-15-41c-1 11-2 25-1 41H43v-65h18Z"/>
  <path d="M90 502c6-1 12-2 19-1v67H96c3-1 7-2 12-1v-65H90ZM144 502h-12v65c4-1 8 0 12 1h-13v-67c4-1 8 0 13 1Z"/>
  <path d="M144 502v66c-4-1-8-2-12-1v-65h12ZM181 501c-4 1-8 3-11 6 2-4 6-6 11-6ZM233 502h12c-1 8 0 16 1 25h23l1-25h12v65h-12l-1-26h-23c-1 8-2 17-1 26-5-1-9 0-12 1-2-22-2-44 0-66Z"/>
  <path d="M233 502c4-1 8-2 13-1v26c-1-9-2-17-1-25h-12ZM269 541l1 26h12v-65h-12l-1 25v-26h14v67h-14v-27ZM305 501h13v67h-13c3-1 7-2 12-1v-65l-12-1ZM437 502l22 63-15 2-4-12c-7-2-14-2-20 0l-4 10-14 3-1-2c6-21 14-43 22-63 4-1 9-2 14-1Zm-8 21 2 2 5 15h-12l5-17ZM716 502h12c-1 17 0 35 1 53 9-1 18 0 28 1-1 3-2 7-1 11-14-1-27 0-40 1-2-22-2-44 0-66Z"/>
  <path d="M716 502c4-1 8-2 13-1v54c-1-18-2-36-1-53h-12ZM787 501l-12 1v65c13-1 26 0 40 1h-41v-67h13ZM964 502h43c-1 3 0 7 1 11l-30 1v13c8-1 16 0 25 1-1 3-2 7-1 11-9-1-17 0-24 1v15h30l1 13h-46c-1-23 0-45 1-66ZM1099 540a18711 18711 0 0 1 8 27l-14-2-4-10c-7-1-14-2-20-1l-4 13h-13l-1-3a2655 2655 0 0 1 22-61c4-1 8-2 13-1 3 13 7 25 13 38Zm-20-17 6 17h-12l6-17Z"/>
  <path d="M1099 540c-6-13-10-25-13-38-5-1-9 0-13 1l-3 6c0-3 0-5 2-7 4-1 9-2 15-1l12 39ZM1492 502h-14v65h11a464 464 0 0 1 1-41v42h-13v-67c5-1 10 0 15 1Z"/>
  <path d="m1492 502 22 38 1-38h11v65h-12a637 637 0 0 0-24-43c-1 14-2 28-1 43h-11v-65h14Z"/>
  <path d="M1514 568v-1h12v-65h-11l-1 38v-39h13v67h-13ZM1549 502h43c-1 3 0 7 1 11l-30 1v13h25l1 13h-26v15c10-1 20 0 31 1-1 3-2 7-1 11-15-1-30 0-44 1-2-22-2-44 0-66ZM1868 501l-31 1v65h12c-1-9 0-17 1-24v25h-14v-67h32ZM1920 527l-2 3c-1-10-2-19-1-28h-12v65h12c-1-6 0-12 1-17v18h-14v-67h14a363 363 0 0 0 2 26ZM1955 501l-15 2-12 14c3-6 6-11 11-15 5-1 10-2 16-1ZM1639 514v54h-13c3-1 7-2 12-1-1-18 0-36 1-53ZM1350 518l1 3c4-1 8 0 12 1h-13v-4ZM1427 514v8l-13-1h12c-1-3 0-5 1-7ZM214 521v5l-13-1h12c-1-2 0-3 1-4ZM488 525l1 2v41h-13c3-1 7-2 12-1v-42ZM626 517v9h-13v-3l12 2c-1-3 0-6 1-8ZM476 502c5-2 10-2 15 0a103115 103115 0 0 0-1 1c-5-1-10-2-14-1ZM944 550c-1-7-2-13-1-19h-23l-1 11v-12h25v20ZM872 528v12h-26c8-1 16-2 25-1-1-4 0-8 1-11ZM1003 528v12h-25c7-1 15-2 24-1-1-4 0-8 1-11ZM1295 528l1 12h-26c8-1 16-2 25-1v-11ZM246 541v27h-13c3-1 7-2 12-1-1-9 0-18 1-26ZM1937 527l-1 2 20 36h-1l-20-34c-1-2 0-4 1-5l1 1ZM1490 526l1-1 23 42v1l-24-42ZM1330 548h-12l-1 7v-8c4-1 8 0 13 1ZM1393 547c-5 0-9 1-13 3v-3h13ZM488 525l1-1 23 42a633 633 0 0 1-1 1 1143 1143 0 0 0-23-42ZM81 565v3l-11-1 11-2ZM416 565v3h-14l14-3ZM459 565v3l-15-1 15-2ZM757 556v12h-41c13-1 26-2 40-1-1-4 0-8 1-11ZM1051 564l1 3h13l-14 1v-4ZM1108 564v4h-15v-3l14 2c-1-2 0-3 1-3Z"/>
  <path d="M1594 556v12h-45c14-1 29-2 44-1-1-4 0-8 1-11ZM1719 560l2 7 14-2v3h-15l-1-8ZM1886 565v3h-15l15-3ZM1955 565h1v3h-15l14-3Z"/>
</svg>