<svg xmlns="http://www.w3.org/2000/svg" viewBox="0.06000000238418579 -1.3822669982910156 147.8800048828125 90.53773498535156" width="148" height="92"><path d="M147.94 60.63c0 10.43-.01 20.86-.02 31.29H.08C.07 81.37.06 70.83.06 60.29c7.25-2.14 18.93-12.6 24.4-18C43.79 23.16 66.92-2.27 97.04 1.82c6.85.94 13.88 3.24 19.39 7.58 3.3 2.6 4.59 8.2-.79 9.41-2.64.6-9.86-2.98-14.14-2.83-12.82.45-20.15 14.01-17.95 25.57 3.81 20.07 25.82 29.07 44.28 26.1 4.68-.75 9.3-2.16 13.66-4 2.04-.86 4.31-2.73 6.45-3.02Z" fill-rule="evenodd" fill="#740e27" stroke-linejoin="round"/></svg>